<svg xmlns="http://www.w3.org/2000/svg" xmlns:xlink="http://www.w3.org/1999/xlink" contentStyleType="text/css" data-diagram-type="SEQUENCE" height="1010px" preserveAspectRatio="none" style="width:2686px;height:1010px;background:#FFFFFF;" version="1.1" viewBox="0 0 2686 1010" width="2686px" zoomAndPan="magnify"><title>Diagrama de Secuencia: Asignaci&#243;n Manual de Declaraci&#243;n</title><defs/><g><text fill="#000000" font-family="sans-serif" font-size="14" font-weight="bold" lengthAdjust="spacing" textLength="466.3408" x="1111.2419" y="27.9951">Diagrama de Secuencia: Asignaci&#243;n Manual de Declaraci&#243;n</text><g><title>App Supervisores</title><rect fill="#FFFFFF" height="761.9297" style="stroke:#696969;stroke-width:1;" width="10" x="546.3628" y="149.7266"/></g><g><title>API Gateway</title><rect fill="#FFFFFF" height="703.6641" style="stroke:#696969;stroke-width:1;" width="10" x="1118.939" y="178.8594"/></g><g><title>MS-Asignaciones</title><rect fill="#FFFFFF" height="653.3984" style="stroke:#696969;stroke-width:1;" width="10" x="1628.9082" y="207.9922"/></g><g><title>MS-Declaraciones</title><rect fill="#FFFFFF" height="87.3984" style="stroke:#696969;stroke-width:1;" width="10" x="2126.7471" y="237.125"/></g><g><title>MS-Declaraciones</title><rect fill="#FFFFFF" height="87.3984" style="stroke:#696969;stroke-width:1;" width="10" x="2126.7471" y="576.7188"/></g><g><title>MS-Especialistas</title><rect fill="#FFFFFF" height="87.3984" style="stroke:#696969;stroke-width:1;" width="10" x="2271.2988" y="377.7891"/></g><g><title>MS-Notificaciones</title><rect fill="#FFFFFF" height="29.1328" style="stroke:#696969;stroke-width:1;" width="10" x="2415.6592" y="693.25"/></g><g><title>Base de Datos SIAD</title><rect fill="#FFFFFF" height="29.1328" style="stroke:#696969;stroke-width:1;" width="10" x="2582.3135" y="518.4531"/></g><rect fill="none" height="514.8672" rx="3.5" ry="3.5" style="stroke:#696969;stroke-width:1;" width="1627.1074" x="1052.7173" y="339.5234"/><rect fill="none" height="323.2656" rx="3.5" ry="3.5" style="stroke:#696969;stroke-width:1;" width="1607.1074" x="1062.7173" y="480.1875"/><g><title>Supervisor Aduanero</title><rect fill="#000000" fill-opacity="0.00000" height="811.0625" width="8" x="77.4897" y="118.5938"/><line style="stroke:#696969;stroke-width:0.5;stroke-dasharray:5.0,5.0;" x1="81" x2="81" y1="118.5938" y2="929.6563"/></g><g><title>App Supervisores</title><rect fill="#000000" fill-opacity="0.00000" height="811.0625" width="8" x="547.3628" y="118.5938"/><line style="stroke:#696969;stroke-width:0.5;stroke-dasharray:5.0,5.0;" x1="551.106" x2="551.106" y1="118.5938" y2="929.6563"/></g><g><title>API Gateway</title><rect fill="#000000" fill-opacity="0.00000" height="811.0625" width="8" x="1119.939" y="118.5938"/><line style="stroke:#696969;stroke-width:0.5;stroke-dasharray:5.0,5.0;" x1="1123.7173" x2="1123.7173" y1="118.5938" y2="929.6563"/></g><g><title>MS-Asignaciones</title><rect fill="#000000" fill-opacity="0.00000" height="811.0625" width="8" x="1629.9082" y="118.5938"/><line style="stroke:#696969;stroke-width:0.5;stroke-dasharray:5.0,5.0;" x1="1633.8833" x2="1633.8833" y1="118.5938" y2="929.6563"/></g><g><title>MS-Declaraciones</title><rect fill="#000000" fill-opacity="0.00000" height="811.0625" width="8" x="2127.7471" y="118.5938"/><line style="stroke:#696969;stroke-width:0.5;stroke-dasharray:5.0,5.0;" x1="2131.3247" x2="2131.3247" y1="118.5938" y2="929.6563"/></g><g><title>MS-Especialistas</title><rect fill="#000000" fill-opacity="0.00000" height="811.0625" width="8" x="2272.2988" y="118.5938"/><line style="stroke:#696969;stroke-width:0.5;stroke-dasharray:5.0,5.0;" x1="2276.1694" x2="2276.1694" y1="118.5938" y2="929.6563"/></g><g><title>MS-Notificaciones</title><rect fill="#000000" fill-opacity="0.00000" height="811.0625" width="8" x="2416.6592" y="118.5938"/><line style="stroke:#696969;stroke-width:0.5;stroke-dasharray:5.0,5.0;" x1="2420.4282" x2="2420.4282" y1="118.5938" y2="929.6563"/></g><g><title>Base de Datos SIAD</title><rect fill="#000000" fill-opacity="0.00000" height="811.0625" width="8" x="2583.3135" y="118.5938"/><line style="stroke:#696969;stroke-width:0.5;stroke-dasharray:5.0,5.0;" x1="2586.8022" x2="2586.8022" y1="118.5938" y2="929.6563"/></g><g class="participant participant-head" data-participant="Supervisor"><text fill="#454645" font-family="sans-serif" font-size="14" lengthAdjust="spacing" textLength="146.9795" x="5" y="115.292">Supervisor Aduanero</text><ellipse cx="81.4897" cy="50.7969" fill="#454645" rx="8" ry="8" style="stroke:#454645;stroke-width:0.5;"/><path d="M81.4897,58.7969 L81.4897,85.7969 M68.4897,66.7969 L94.4897,66.7969 M81.4897,85.7969 L68.4897,100.7969 M81.4897,85.7969 L94.4897,100.7969" fill="none" style="stroke:#454645;stroke-width:0.5;"/></g><g class="participant participant-tail" data-participant="Supervisor"><text fill="#454645" font-family="sans-serif" font-size="14" lengthAdjust="spacing" textLength="146.9795" x="5" y="941.6514">Supervisor Aduanero</text><ellipse cx="81.4897" cy="953.4531" fill="#454645" rx="8" ry="8" style="stroke:#454645;stroke-width:0.5;"/><path d="M81.4897,961.4531 L81.4897,988.4531 M68.4897,969.4531 L94.4897,969.4531 M81.4897,988.4531 L68.4897,1003.4531 M81.4897,988.4531 L94.4897,1003.4531" fill="none" style="stroke:#454645;stroke-width:0.5;"/></g><g class="participant participant-head" data-participant="AppSup"><rect fill="#FF6347" height="46.5938" rx="3.5" ry="3.5" style="stroke:#454645;stroke-width:1.5;" width="136.5137" x="483.106" y="71"/><text fill="#FFFFFF" font-family="sans-serif" font-size="14" lengthAdjust="spacing" textLength="122.5137" x="490.106" y="90.9951">App Supervisores</text><text fill="#FFFFFF" font-family="sans-serif" font-size="14" lengthAdjust="spacing" textLength="65.3584" x="518.6836" y="107.292">(Angular)</text></g><g class="participant participant-tail" data-participant="AppSup"><rect fill="#FF6347" height="46.5938" rx="3.5" ry="3.5" style="stroke:#454645;stroke-width:1.5;" width="136.5137" x="483.106" y="928.6563"/><text fill="#FFFFFF" font-family="sans-serif" font-size="14" lengthAdjust="spacing" textLength="122.5137" x="490.106" y="948.6514">App Supervisores</text><text fill="#FFFFFF" font-family="sans-serif" font-size="14" lengthAdjust="spacing" textLength="65.3584" x="518.6836" y="964.9482">(Angular)</text></g><g class="participant participant-head" data-participant="APIGW"><rect fill="#FF6347" height="30.2969" rx="3.5" ry="3.5" style="stroke:#454645;stroke-width:1.5;" width="102.4434" x="1072.7173" y="87.2969"/><text fill="#FFFFFF" font-family="sans-serif" font-size="14" lengthAdjust="spacing" textLength="88.4434" x="1079.7173" y="107.292">API Gateway</text></g><g class="participant participant-tail" data-participant="APIGW"><rect fill="#FF6347" height="30.2969" rx="3.5" ry="3.5" style="stroke:#454645;stroke-width:1.5;" width="102.4434" x="1072.7173" y="928.6563"/><text fill="#FFFFFF" font-family="sans-serif" font-size="14" lengthAdjust="spacing" textLength="88.4434" x="1079.7173" y="948.6514">API Gateway</text></g><g class="participant participant-head" data-participant="MSAsig"><rect fill="#FF6347" height="46.5938" rx="3.5" ry="3.5" style="stroke:#454645;stroke-width:1.5;" width="132.0498" x="1567.8833" y="71"/><text fill="#FFFFFF" font-family="sans-serif" font-size="14" lengthAdjust="spacing" textLength="118.0498" x="1574.8833" y="90.9951">MS-Asignaciones</text><text fill="#FFFFFF" font-family="sans-serif" font-size="14" lengthAdjust="spacing" textLength="92.7773" x="1587.5195" y="107.292">(Spring Boot)</text></g><g class="participant participant-tail" data-participant="MSAsig"><rect fill="#FF6347" height="46.5938" rx="3.5" ry="3.5" style="stroke:#454645;stroke-width:1.5;" width="132.0498" x="1567.8833" y="928.6563"/><text fill="#FFFFFF" font-family="sans-serif" font-size="14" lengthAdjust="spacing" textLength="118.0498" x="1574.8833" y="948.6514">MS-Asignaciones</text><text fill="#FFFFFF" font-family="sans-serif" font-size="14" lengthAdjust="spacing" textLength="92.7773" x="1587.5195" y="964.9482">(Spring Boot)</text></g><g class="participant participant-head" data-participant="MSDecl"><rect fill="#FF6347" height="46.5938" rx="3.5" ry="3.5" style="stroke:#454645;stroke-width:1.5;" width="138.8447" x="2062.3247" y="71"/><text fill="#FFFFFF" font-family="sans-serif" font-size="14" lengthAdjust="spacing" textLength="124.8447" x="2069.3247" y="90.9951">MS-Declaraciones</text><text fill="#FFFFFF" font-family="sans-serif" font-size="14" lengthAdjust="spacing" textLength="92.7773" x="2085.3584" y="107.292">(Spring Boot)</text></g><g class="participant participant-tail" data-participant="MSDecl"><rect fill="#FF6347" height="46.5938" rx="3.5" ry="3.5" style="stroke:#454645;stroke-width:1.5;" width="138.8447" x="2062.3247" y="928.6563"/><text fill="#FFFFFF" font-family="sans-serif" font-size="14" lengthAdjust="spacing" textLength="124.8447" x="2069.3247" y="948.6514">MS-Declaraciones</text><text fill="#FFFFFF" font-family="sans-serif" font-size="14" lengthAdjust="spacing" textLength="92.7773" x="2085.3584" y="964.9482">(Spring Boot)</text></g><g class="participant participant-head" data-participant="MSEsp"><rect fill="#FF6347" height="46.5938" rx="3.5" ry="3.5" style="stroke:#454645;stroke-width:1.5;" width="130.2588" x="2211.1694" y="71"/><text fill="#FFFFFF" font-family="sans-serif" font-size="14" lengthAdjust="spacing" textLength="116.2588" x="2218.1694" y="90.9951">MS-Especialistas</text><text fill="#FFFFFF" font-family="sans-serif" font-size="14" lengthAdjust="spacing" textLength="92.7773" x="2229.9102" y="107.292">(Spring Boot)</text></g><g class="participant participant-tail" data-participant="MSEsp"><rect fill="#FF6347" height="46.5938" rx="3.5" ry="3.5" style="stroke:#454645;stroke-width:1.5;" width="130.2588" x="2211.1694" y="928.6563"/><text fill="#FFFFFF" font-family="sans-serif" font-size="14" lengthAdjust="spacing" textLength="116.2588" x="2218.1694" y="948.6514">MS-Especialistas</text><text fill="#FFFFFF" font-family="sans-serif" font-size="14" lengthAdjust="spacing" textLength="92.7773" x="2229.9102" y="964.9482">(Spring Boot)</text></g><g class="participant participant-head" data-participant="MSNotif"><rect fill="#FF6347" height="46.5938" rx="3.5" ry="3.5" style="stroke:#454645;stroke-width:1.5;" width="138.4619" x="2351.4282" y="71"/><text fill="#FFFFFF" font-family="sans-serif" font-size="14" lengthAdjust="spacing" textLength="124.4619" x="2358.4282" y="90.9951">MS-Notificaciones</text><text fill="#FFFFFF" font-family="sans-serif" font-size="14" lengthAdjust="spacing" textLength="92.7773" x="2374.2705" y="107.292">(Spring Boot)</text></g><g class="participant participant-tail" data-participant="MSNotif"><rect fill="#FF6347" height="46.5938" rx="3.5" ry="3.5" style="stroke:#454645;stroke-width:1.5;" width="138.4619" x="2351.4282" y="928.6563"/><text fill="#FFFFFF" font-family="sans-serif" font-size="14" lengthAdjust="spacing" textLength="124.4619" x="2358.4282" y="948.6514">MS-Notificaciones</text><text fill="#FFFFFF" font-family="sans-serif" font-size="14" lengthAdjust="spacing" textLength="92.7773" x="2374.2705" y="964.9482">(Spring Boot)</text></g><g class="participant participant-head" data-participant="DB"><text fill="#454645" font-family="sans-serif" font-size="14" lengthAdjust="spacing" textLength="139.0225" x="2514.8022" y="115.292">Base de Datos SIAD</text><path d="M2569.3135,66.2969 C2569.3135,56.2969 2587.3135,56.2969 2587.3135,56.2969 C2587.3135,56.2969 2605.3135,56.2969 2605.3135,66.2969 L2605.3135,92.2969 C2605.3135,102.2969 2587.3135,102.2969 2587.3135,102.2969 C2587.3135,102.2969 2569.3135,102.2969 2569.3135,92.2969 L2569.3135,66.2969" fill="#00FFFF" style="stroke:#454645;stroke-width:1.5;"/><path d="M2569.3135,66.2969 C2569.3135,76.2969 2587.3135,76.2969 2587.3135,76.2969 C2587.3135,76.2969 2605.3135,76.2969 2605.3135,66.2969" fill="none" style="stroke:#454645;stroke-width:1.5;"/></g><g class="participant participant-tail" data-participant="DB"><text fill="#454645" font-family="sans-serif" font-size="14" lengthAdjust="spacing" textLength="139.0225" x="2514.8022" y="941.6514">Base de Datos SIAD</text><path d="M2569.3135,954.9531 C2569.3135,944.9531 2587.3135,944.9531 2587.3135,944.9531 C2587.3135,944.9531 2605.3135,944.9531 2605.3135,954.9531 L2605.3135,980.9531 C2605.3135,990.9531 2587.3135,990.9531 2587.3135,990.9531 C2587.3135,990.9531 2569.3135,990.9531 2569.3135,980.9531 L2569.3135,954.9531" fill="#00FFFF" style="stroke:#454645;stroke-width:1.5;"/><path d="M2569.3135,954.9531 C2569.3135,964.9531 2587.3135,964.9531 2587.3135,964.9531 C2587.3135,964.9531 2605.3135,964.9531 2605.3135,954.9531" fill="none" style="stroke:#454645;stroke-width:1.5;"/></g><g><title>App Supervisores</title><rect fill="#FFFFFF" height="761.9297" style="stroke:#696969;stroke-width:1;" width="10" x="546.3628" y="149.7266"/></g><g><title>API Gateway</title><rect fill="#FFFFFF" height="703.6641" style="stroke:#696969;stroke-width:1;" width="10" x="1118.939" y="178.8594"/></g><g><title>MS-Asignaciones</title><rect fill="#FFFFFF" height="653.3984" style="stroke:#696969;stroke-width:1;" width="10" x="1628.9082" y="207.9922"/></g><g><title>MS-Declaraciones</title><rect fill="#FFFFFF" height="87.3984" style="stroke:#696969;stroke-width:1;" width="10" x="2126.7471" y="237.125"/></g><g><title>MS-Declaraciones</title><rect fill="#FFFFFF" height="87.3984" style="stroke:#696969;stroke-width:1;" width="10" x="2126.7471" y="576.7188"/></g><g><title>MS-Especialistas</title><rect fill="#FFFFFF" height="87.3984" style="stroke:#696969;stroke-width:1;" width="10" x="2271.2988" y="377.7891"/></g><g><title>MS-Notificaciones</title><rect fill="#FFFFFF" height="29.1328" style="stroke:#696969;stroke-width:1;" width="10" x="2415.6592" y="693.25"/></g><g><title>Base de Datos SIAD</title><rect fill="#FFFFFF" height="29.1328" style="stroke:#696969;stroke-width:1;" width="10" x="2582.3135" y="518.4531"/></g><g class="message" data-participant-1="Supervisor" data-participant-2="AppSup"><polygon fill="#454645" points="534.3628,145.7266,544.3628,149.7266,534.3628,153.7266,538.3628,149.7266" style="stroke:#454645;stroke-width:1;"/><line style="stroke:#454645;stroke-width:1;" x1="81.4897" x2="540.3628" y1="149.7266" y2="149.7266"/><text fill="#000000" font-family="sans-serif" font-size="13" font-weight="bold" lengthAdjust="spacing" textLength="20.9282" x="88.4897" y="144.6606">[1]</text><text fill="#000000" font-family="sans-serif" font-size="13" lengthAdjust="spacing" textLength="420.9448" x="113.418" y="144.6606">1. Selecciona Declaraci&#243;n y Especialista para asignaci&#243;n manual</text></g><g class="message" data-participant-1="AppSup" data-participant-2="APIGW"><polygon fill="#454645" points="1106.939,174.8594,1116.939,178.8594,1106.939,182.8594,1110.939,178.8594" style="stroke:#454645;stroke-width:1;"/><line style="stroke:#454645;stroke-width:1;" x1="556.3628" x2="1112.939" y1="178.8594" y2="178.8594"/><text fill="#000000" font-family="sans-serif" font-size="13" font-weight="bold" lengthAdjust="spacing" textLength="20.9282" x="563.3628" y="173.7935">[2]</text><text fill="#000000" font-family="sans-serif" font-size="13" lengthAdjust="spacing" textLength="518.6479" x="588.291" y="173.7935">2. POST /api/asignaciones/manual (idDeclaracion, idEspecialista, tipoDiligencia)</text></g><g class="message" data-participant-1="APIGW" data-participant-2="MSAsig"><polygon fill="#454645" points="1616.9082,203.9922,1626.9082,207.9922,1616.9082,211.9922,1620.9082,207.9922" style="stroke:#454645;stroke-width:1;"/><line style="stroke:#454645;stroke-width:1;" x1="1128.939" x2="1622.9082" y1="207.9922" y2="207.9922"/><text fill="#000000" font-family="sans-serif" font-size="13" font-weight="bold" lengthAdjust="spacing" textLength="20.9282" x="1135.939" y="202.9263">[3]</text><text fill="#000000" font-family="sans-serif" font-size="13" lengthAdjust="spacing" textLength="456.041" x="1160.8672" y="202.9263">3. /asignaciones/manual (idDeclaracion, idEspecialista, tipoDiligencia)</text></g><g class="message" data-participant-1="MSAsig" data-participant-2="MSDecl"><polygon fill="#454645" points="2114.7471,233.125,2124.7471,237.125,2114.7471,241.125,2118.7471,237.125" style="stroke:#454645;stroke-width:1;"/><line style="stroke:#454645;stroke-width:1;" x1="1638.9082" x2="2120.7471" y1="237.125" y2="237.125"/><text fill="#000000" font-family="sans-serif" font-size="13" font-weight="bold" lengthAdjust="spacing" textLength="20.9282" x="1645.9082" y="232.0591">[4]</text><text fill="#000000" font-family="sans-serif" font-size="13" lengthAdjust="spacing" textLength="299.4888" x="1670.8364" y="232.0591">4. GET /declaraciones/{idDeclaracion}/estado</text></g><g class="message" data-participant-1="MSDecl" data-participant-2="DB"><polygon fill="#454645" points="2575.3135,262.2578,2585.3135,266.2578,2575.3135,270.2578,2579.3135,266.2578" style="stroke:#454645;stroke-width:1;"/><line style="stroke:#454645;stroke-width:1;stroke-dasharray:2.0,2.0;" x1="2136.7471" x2="2581.3135" y1="266.2578" y2="266.2578"/><text fill="#000000" font-family="sans-serif" font-size="13" font-weight="bold" lengthAdjust="spacing" textLength="20.9282" x="2143.7471" y="261.1919">[5]</text><text fill="#000000" font-family="sans-serif" font-size="13" lengthAdjust="spacing" textLength="209.3076" x="2168.6753" y="261.1919">4.1 Consulta estado declaraci&#243;n</text></g><g class="message" data-participant-1="DB" data-participant-2="MSDecl"><polygon fill="#454645" points="2147.7471,291.3906,2137.7471,295.3906,2147.7471,299.3906,2143.7471,295.3906" style="stroke:#454645;stroke-width:1;"/><line style="stroke:#454645;stroke-width:1;stroke-dasharray:2.0,2.0;" x1="2141.7471" x2="2586.3135" y1="295.3906" y2="295.3906"/><text fill="#000000" font-family="sans-serif" font-size="13" font-weight="bold" lengthAdjust="spacing" textLength="20.9282" x="2153.7471" y="290.3247">[6]</text><text fill="#000000" font-family="sans-serif" font-size="13" lengthAdjust="spacing" textLength="124.6108" x="2178.6753" y="290.3247">4.2 Retorna estado</text></g><g class="message" data-participant-1="MSDecl" data-participant-2="MSAsig"><polygon fill="#454645" points="1649.9082,320.5234,1639.9082,324.5234,1649.9082,328.5234,1645.9082,324.5234" style="stroke:#454645;stroke-width:1;"/><line style="stroke:#454645;stroke-width:1;stroke-dasharray:2.0,2.0;" x1="1643.9082" x2="2130.7471" y1="324.5234" y2="324.5234"/><text fill="#000000" font-family="sans-serif" font-size="13" font-weight="bold" lengthAdjust="spacing" textLength="20.9282" x="1655.9082" y="319.4575">[7]</text><text fill="#000000" font-family="sans-serif" font-size="13" lengthAdjust="spacing" textLength="203.9819" x="1680.8364" y="319.4575">4.3 Retorna estado declaraci&#243;n</text></g><path d="M1056.2173,339.5234 L1117.1602,339.5234 L1117.1602,346.6563 L1107.1602,356.6563 L1052.7173,356.6563 L1052.7173,343.0234 A3.5,3.5 0 0 1 1056.2173,339.5234" fill="#EEEEEE" style="stroke:#696969;stroke-width:1.5;"/><rect fill="none" height="514.8672" rx="3.5" ry="3.5" style="stroke:#696969;stroke-width:1;" width="1627.1074" x="1052.7173" y="339.5234"/><text fill="#454645" font-family="sans-serif" font-size="13" font-weight="bold" lengthAdjust="spacing" textLength="19.4429" x="1067.7173" y="352.5903">alt</text><text fill="#696969" font-family="sans-serif" font-size="11" font-weight="bold" lengthAdjust="spacing" textLength="261.8301" x="1132.1602" y="351.7339">[Si declaraci&#243;n est&#225; apta para asignaci&#243;n]</text><g class="message" data-participant-1="MSAsig" data-participant-2="MSEsp"><polygon fill="#454645" points="2259.2988,373.7891,2269.2988,377.7891,2259.2988,381.7891,2263.2988,377.7891" style="stroke:#454645;stroke-width:1;"/><line style="stroke:#454645;stroke-width:1;" x1="1638.9082" x2="2265.2988" y1="377.7891" y2="377.7891"/><text fill="#000000" font-family="sans-serif" font-size="13" font-weight="bold" lengthAdjust="spacing" textLength="20.9282" x="1645.9082" y="372.7231">[8]</text><text fill="#000000" font-family="sans-serif" font-size="13" lengthAdjust="spacing" textLength="339.2949" x="1670.8364" y="372.7231">5. GET /especialistas/{idEspecialista}/disponibilidad</text></g><g class="message" data-participant-1="MSEsp" data-participant-2="DB"><polygon fill="#454645" points="2575.3135,402.9219,2585.3135,406.9219,2575.3135,410.9219,2579.3135,406.9219" style="stroke:#454645;stroke-width:1;"/><line style="stroke:#454645;stroke-width:1;stroke-dasharray:2.0,2.0;" x1="2281.2988" x2="2581.3135" y1="406.9219" y2="406.9219"/><text fill="#000000" font-family="sans-serif" font-size="13" font-weight="bold" lengthAdjust="spacing" textLength="20.9282" x="2288.2988" y="401.856">[9]</text><text fill="#000000" font-family="sans-serif" font-size="13" lengthAdjust="spacing" textLength="257.0864" x="2313.2271" y="401.856">5.1 Consulta disponibilidad especialista</text></g><g class="message" data-participant-1="DB" data-participant-2="MSEsp"><polygon fill="#454645" points="2292.2988,432.0547,2282.2988,436.0547,2292.2988,440.0547,2288.2988,436.0547" style="stroke:#454645;stroke-width:1;"/><line style="stroke:#454645;stroke-width:1;stroke-dasharray:2.0,2.0;" x1="2286.2988" x2="2586.3135" y1="436.0547" y2="436.0547"/><text fill="#000000" font-family="sans-serif" font-size="13" font-weight="bold" lengthAdjust="spacing" textLength="29.9736" x="2298.2988" y="430.9888">[10]</text><text fill="#000000" font-family="sans-serif" font-size="13" lengthAdjust="spacing" textLength="170.8218" x="2332.2725" y="430.9888">5.2 Retorna disponibilidad</text></g><g class="message" data-participant-1="MSEsp" data-participant-2="MSAsig"><polygon fill="#454645" points="1649.9082,461.1875,1639.9082,465.1875,1649.9082,469.1875,1645.9082,465.1875" style="stroke:#454645;stroke-width:1;"/><line style="stroke:#454645;stroke-width:1;stroke-dasharray:2.0,2.0;" x1="1643.9082" x2="2275.2988" y1="465.1875" y2="465.1875"/><text fill="#000000" font-family="sans-serif" font-size="13" font-weight="bold" lengthAdjust="spacing" textLength="29.9736" x="1655.9082" y="460.1216">[11]</text><text fill="#000000" font-family="sans-serif" font-size="13" lengthAdjust="spacing" textLength="251.7607" x="1689.8818" y="460.1216">5.3 Retorna disponibilidad especialista</text></g><path d="M1066.2173,480.1875 L1127.1602,480.1875 L1127.1602,487.3203 L1117.1602,497.3203 L1062.7173,497.3203 L1062.7173,483.6875 A3.5,3.5 0 0 1 1066.2173,480.1875" fill="#EEEEEE" style="stroke:#696969;stroke-width:1.5;"/><rect fill="none" height="323.2656" rx="3.5" ry="3.5" style="stroke:#696969;stroke-width:1;" width="1607.1074" x="1062.7173" y="480.1875"/><text fill="#454645" font-family="sans-serif" font-size="13" font-weight="bold" lengthAdjust="spacing" textLength="19.4429" x="1077.7173" y="493.2544">alt</text><text fill="#696969" font-family="sans-serif" font-size="11" font-weight="bold" lengthAdjust="spacing" textLength="198.0806" x="1142.1602" y="492.3979">[Si especialista est&#225; disponible]</text><g class="message" data-participant-1="MSAsig" data-participant-2="DB"><polygon fill="#454645" points="2570.3135,514.4531,2580.3135,518.4531,2570.3135,522.4531,2574.3135,518.4531" style="stroke:#454645;stroke-width:1;"/><line style="stroke:#454645;stroke-width:1;" x1="1638.9082" x2="2576.3135" y1="518.4531" y2="518.4531"/><text fill="#000000" font-family="sans-serif" font-size="13" font-weight="bold" lengthAdjust="spacing" textLength="29.9736" x="1645.9082" y="513.3872">[12]</text><text fill="#000000" font-family="sans-serif" font-size="13" lengthAdjust="spacing" textLength="606.9946" x="1679.8818" y="513.3872">6. Crear nueva Asignaci&#243;n (diligencia_id, especialista_id, supervisor_id, fecha, tipo='Manual')</text></g><g class="message" data-participant-1="DB" data-participant-2="MSAsig"><polygon fill="#454645" points="1649.9082,543.5859,1639.9082,547.5859,1649.9082,551.5859,1645.9082,547.5859" style="stroke:#454645;stroke-width:1;"/><line style="stroke:#454645;stroke-width:1;stroke-dasharray:2.0,2.0;" x1="1643.9082" x2="2586.3135" y1="547.5859" y2="547.5859"/><text fill="#000000" font-family="sans-serif" font-size="13" font-weight="bold" lengthAdjust="spacing" textLength="29.9736" x="1655.9082" y="542.52">[13]</text><text fill="#000000" font-family="sans-serif" font-size="13" lengthAdjust="spacing" textLength="241.1284" x="1689.8818" y="542.52">6.1 Asignaci&#243;n creada (idAsignacion)</text></g><g class="message" data-participant-1="MSAsig" data-participant-2="MSDecl"><polygon fill="#454645" points="2114.7471,572.7188,2124.7471,576.7188,2114.7471,580.7188,2118.7471,576.7188" style="stroke:#454645;stroke-width:1;"/><line style="stroke:#454645;stroke-width:1;" x1="1638.9082" x2="2120.7471" y1="576.7188" y2="576.7188"/><text fill="#000000" font-family="sans-serif" font-size="13" font-weight="bold" lengthAdjust="spacing" textLength="29.9736" x="1645.9082" y="571.6528">[14]</text><text fill="#000000" font-family="sans-serif" font-size="13" lengthAdjust="spacing" textLength="434.8652" x="1679.8818" y="571.6528">7. PUT /declaraciones/{idDeclaracion}/estado (estado='Asignada')</text></g><g class="message" data-participant-1="MSDecl" data-participant-2="DB"><polygon fill="#454645" points="2575.3135,601.8516,2585.3135,605.8516,2575.3135,609.8516,2579.3135,605.8516" style="stroke:#454645;stroke-width:1;"/><line style="stroke:#454645;stroke-width:1;stroke-dasharray:2.0,2.0;" x1="2136.7471" x2="2581.3135" y1="605.8516" y2="605.8516"/><text fill="#000000" font-family="sans-serif" font-size="13" font-weight="bold" lengthAdjust="spacing" textLength="29.9736" x="2143.7471" y="600.7856">[15]</text><text fill="#000000" font-family="sans-serif" font-size="13" lengthAdjust="spacing" textLength="211.707" x="2177.7207" y="600.7856">7.1 Actualiza estado declaraci&#243;n</text></g><g class="message" data-participant-1="DB" data-participant-2="MSDecl"><polygon fill="#454645" points="2147.7471,630.9844,2137.7471,634.9844,2147.7471,638.9844,2143.7471,634.9844" style="stroke:#454645;stroke-width:1;"/><line style="stroke:#454645;stroke-width:1;stroke-dasharray:2.0,2.0;" x1="2141.7471" x2="2586.3135" y1="634.9844" y2="634.9844"/><text fill="#000000" font-family="sans-serif" font-size="13" font-weight="bold" lengthAdjust="spacing" textLength="29.9736" x="2153.7471" y="629.9185">[16]</text><text fill="#000000" font-family="sans-serif" font-size="13" lengthAdjust="spacing" textLength="147.8306" x="2187.7207" y="629.9185">7.2 Estado actualizado</text></g><g class="message" data-participant-1="MSDecl" data-participant-2="MSAsig"><polygon fill="#454645" points="1649.9082,660.1172,1639.9082,664.1172,1649.9082,668.1172,1645.9082,664.1172" style="stroke:#454645;stroke-width:1;"/><line style="stroke:#454645;stroke-width:1;stroke-dasharray:2.0,2.0;" x1="1643.9082" x2="2130.7471" y1="664.1172" y2="664.1172"/><text fill="#000000" font-family="sans-serif" font-size="13" font-weight="bold" lengthAdjust="spacing" textLength="29.9736" x="1655.9082" y="659.0513">[17]</text><text fill="#000000" font-family="sans-serif" font-size="13" lengthAdjust="spacing" textLength="200.7065" x="1689.8818" y="659.0513">7.3 Confirmaci&#243;n actualizaci&#243;n</text></g><g class="message" data-participant-1="MSAsig" data-participant-2="MSNotif"><polygon fill="#454645" points="2403.6592,689.25,2413.6592,693.25,2403.6592,697.25,2407.6592,693.25" style="stroke:#454645;stroke-width:1;"/><line style="stroke:#454645;stroke-width:1;" x1="1638.9082" x2="2409.6592" y1="693.25" y2="693.25"/><text fill="#000000" font-family="sans-serif" font-size="13" font-weight="bold" lengthAdjust="spacing" textLength="29.9736" x="1645.9082" y="688.1841">[18]</text><text fill="#000000" font-family="sans-serif" font-size="13" lengthAdjust="spacing" textLength="468.4951" x="1679.8818" y="688.1841">8. POST /notificaciones/nueva-asignacion (idEspecialista, idDeclaracion)</text></g><g class="message" data-participant-1="MSNotif" data-participant-2="MSAsig"><polygon fill="#454645" points="1649.9082,718.3828,1639.9082,722.3828,1649.9082,726.3828,1645.9082,722.3828" style="stroke:#454645;stroke-width:1;"/><line style="stroke:#454645;stroke-width:1;stroke-dasharray:2.0,2.0;" x1="1643.9082" x2="2419.6592" y1="722.3828" y2="722.3828"/><text fill="#000000" font-family="sans-serif" font-size="13" font-weight="bold" lengthAdjust="spacing" textLength="29.9736" x="1655.9082" y="717.3169">[19]</text><text fill="#000000" font-family="sans-serif" font-size="13" lengthAdjust="spacing" textLength="220.8223" x="1689.8818" y="717.3169">8.1 Notificaci&#243;n encolada/enviada</text></g><g class="message" data-participant-1="MSAsig" data-participant-2="APIGW"><polygon fill="#454645" points="1139.939,747.5156,1129.939,751.5156,1139.939,755.5156,1135.939,751.5156" style="stroke:#454645;stroke-width:1;"/><line style="stroke:#454645;stroke-width:1;stroke-dasharray:2.0,2.0;" x1="1133.939" x2="1627.9082" y1="751.5156" y2="751.5156"/><text fill="#000000" font-family="sans-serif" font-size="13" font-weight="bold" lengthAdjust="spacing" textLength="29.9736" x="1145.939" y="746.4497">[20]</text><text fill="#000000" font-family="sans-serif" font-size="13" lengthAdjust="spacing" textLength="242.8169" x="1179.9126" y="746.4497">9. Respuesta OK (asignaci&#243;n exitosa)</text></g><line style="stroke:#696969;stroke-width:1;stroke-dasharray:2.0,2.0;" x1="1062.7173" x2="2669.8247" y1="760.5156" y2="760.5156"/><text fill="#696969" font-family="sans-serif" font-size="11" font-weight="bold" lengthAdjust="spacing" textLength="174.48" x="1067.7173" y="770.7261">[Especialista NO disponible]</text><g class="message" data-participant-1="MSAsig" data-participant-2="APIGW"><polygon fill="#454645" points="1139.939,791.4531,1129.939,795.4531,1139.939,799.4531,1135.939,795.4531" style="stroke:#454645;stroke-width:1;"/><line style="stroke:#454645;stroke-width:1;stroke-dasharray:2.0,2.0;" x1="1133.939" x2="1627.9082" y1="795.4531" y2="795.4531"/><text fill="#000000" font-family="sans-serif" font-size="13" font-weight="bold" lengthAdjust="spacing" textLength="29.9736" x="1145.939" y="790.3872">[21]</text><text fill="#000000" font-family="sans-serif" font-size="13" lengthAdjust="spacing" textLength="303.0942" x="1179.9126" y="790.3872">9. Respuesta Error (especialista no disponible)</text></g><line style="stroke:#696969;stroke-width:1;stroke-dasharray:2.0,2.0;" x1="1052.7173" x2="2679.8247" y1="811.4531" y2="811.4531"/><text fill="#696969" font-family="sans-serif" font-size="11" font-weight="bold" lengthAdjust="spacing" textLength="137.0811" x="1057.7173" y="821.6636">[Declaraci&#243;n NO apta]</text><g class="message" data-participant-1="MSAsig" data-participant-2="APIGW"><polygon fill="#454645" points="1139.939,842.3906,1129.939,846.3906,1139.939,850.3906,1135.939,846.3906" style="stroke:#454645;stroke-width:1;"/><line style="stroke:#454645;stroke-width:1;stroke-dasharray:2.0,2.0;" x1="1133.939" x2="1627.9082" y1="846.3906" y2="846.3906"/><text fill="#000000" font-family="sans-serif" font-size="13" font-weight="bold" lengthAdjust="spacing" textLength="29.9736" x="1145.939" y="841.3247">[22]</text><text fill="#000000" font-family="sans-serif" font-size="13" lengthAdjust="spacing" textLength="264.2529" x="1179.9126" y="841.3247">9. Respuesta Error (declaraci&#243;n no apta)</text></g><g class="message" data-participant-1="APIGW" data-participant-2="AppSup"><polygon fill="#454645" points="567.3628,878.5234,557.3628,882.5234,567.3628,886.5234,563.3628,882.5234" style="stroke:#454645;stroke-width:1;"/><line style="stroke:#454645;stroke-width:1;stroke-dasharray:2.0,2.0;" x1="561.3628" x2="1122.939" y1="882.5234" y2="882.5234"/><text fill="#000000" font-family="sans-serif" font-size="13" font-weight="bold" lengthAdjust="spacing" textLength="29.9736" x="573.3628" y="877.4575">[23]</text><text fill="#000000" font-family="sans-serif" font-size="13" lengthAdjust="spacing" textLength="117.6348" x="607.3364" y="877.4575">10. Respuesta API</text></g><g class="message" data-participant-1="AppSup" data-participant-2="Supervisor"><polygon fill="#454645" points="92.4897,907.6563,82.4897,911.6563,92.4897,915.6563,88.4897,911.6563" style="stroke:#454645;stroke-width:1;"/><line style="stroke:#454645;stroke-width:1;stroke-dasharray:2.0,2.0;" x1="86.4897" x2="550.3628" y1="911.6563" y2="911.6563"/><text fill="#000000" font-family="sans-serif" font-size="13" font-weight="bold" lengthAdjust="spacing" textLength="29.9736" x="98.4897" y="906.5903">[24]</text><text fill="#000000" font-family="sans-serif" font-size="13" lengthAdjust="spacing" textLength="214.2334" x="132.4634" y="906.5903">11. Muestra confirmaci&#243;n o error</text></g><!--SRC=[hLNRJXin47ttLqppGf18bZiqAaW9GGXL0TIqwaDRLPEr2POstjMkDosj-9X-Gp-17-lOtejDGij3yn0dkpFdUCxSNkaxiH2mbBCSbMPQwaJ0ME8ynmK25p0LSIbKB740mqBE5SRoyRU22QeI4sCm5d62kNlC6COwpQ4pBJEHBsL1luUyH2Noj0DOGFkSPPXh6SkCQA4pp3BldIW-g-vGpKi2thH-z9vUF_6vkOGBrE8RtZkRcykBZw79PDghBvqgYphDSgdcC4fJxP0dKsEnujP4zRoVCLdnEoyoGM8bij3uZ1-PhBXTfLhUolYlVDQ6STGumq90PsI-JG9GfwJivN1i3SSZoaAfKrKkPe9IyMPs-cdxIuSnBoUzqqhH0UpqASM9Y0qp1ic4U_2Z0Rep4a5R0mjR0oRbSabvg9F4t6b9J4e6iDk7c-lfUuWman5w2OaS17GbzmJV0ibzvYtGCal7Cf5pMucR7gNDERE78NJP7C1U7_ulKLKcp9sEoY0DOByF5-SK6_Sh9leP43r4Wk1vwkFPyd47z0XlF39OEt2Mgg9CI6_d0jplh_78shRSk_1EKCUfsjn7hCNOx-yziGf1kNXwBOQ9XgaCp8phuo_0R4qfC0RqyRKXMGTmK4aZ_AOmqlYYFqHS5bcgv8nqvyWjb7SXqouEdNurIXtuIeK0uDDPrqQrwbQjQ6keMvvQlmDFltzH1LgQgxjmd9o-TILdZPS8PndgQ28zxCDPBZ07LOeb1aEuovjI_IhvLe1l7nHDozk_joA-guhyPCDDy8tDXhQvE4sG-bcZd5FYa5JtBn3JnJYQhch7R0leQM66qcfuTHaVqNpuyC8MWguxJpOS9STr8LHrt586RNPameWrXIz_h6-9bVZhY-xIJBJcMFjJpwsXgHKxejgXEhsL-QBIh74CcLQRi7wpLZYx30PmN4zM5IoGoDPAhvs09aNXf0l4NQkWspSjkVqV17TCEhQRoyu85QS9vIGIQYdfN1-UGrw9grqOh_lKS4LMcjJ0zLle-cj7V9UqyD3TMIIq18CrTNNjDzKBESxpdDPYDsXGbNf05PlYp386Uv8OpLHaB-S9vYhn6FTDPj33OMntJhNS_9szxMFIUz-hNedL4YQtTl6JA-txYV6Z0Hu7TPc2C9SBe2p67m00]--></g></svg>