<svg xmlns="http://www.w3.org/2000/svg" xmlns:xlink="http://www.w3.org/1999/xlink" contentStyleType="text/css" data-diagram-type="DESCRIPTION" height="1113px" preserveAspectRatio="none" style="width:1927px;height:1113px;background:#FFFFFF;" version="1.1" viewBox="0 0 1927 1113" width="1927px" zoomAndPan="magnify"><title>Diagrama de Despliegue - Sistema de Asignaci&#243;n de Especialistas (SIAD)</title><defs/><g><g class="title" data-source-line="2"><text fill="#000000" font-family="sans-serif" font-size="14" font-weight="bold" lengthAdjust="spacing" textLength="574.9775" x="669.1267" y="22.9951">Diagrama de Despliegue - Sistema de Asignaci&#243;n de Especialistas (SIAD)</text></g><!--cluster Intranet--><g class="cluster" data-entity="Intranet" data-source-line="6" data-uid="ent0003" id="cluster_Intranet"><polygon fill="none" points="71.7285,222.0969,81.7285,212.0969,790.7285,212.0969,790.7285,401.3969,780.7285,411.3969,71.7285,411.3969,71.7285,222.0969" style="stroke:#696969;stroke-width:1;"/><line style="stroke:#696969;stroke-width:1;" x1="780.7285" x2="790.7285" y1="222.0969" y2="212.0969"/><line style="stroke:#696969;stroke-width:1;" x1="71.7285" x2="780.7285" y1="222.0969" y2="222.0969"/><line style="stroke:#696969;stroke-width:1;" x1="780.7285" x2="780.7285" y1="222.0969" y2="411.3969"/><text fill="#000000" font-family="sans-serif" font-size="14" font-weight="bold" lengthAdjust="spacing" textLength="295.8662" x="279.2953" y="238.092">Intranet SUNAT (intranet.sunat.peru)</text></g><!--cluster NginxServer--><g class="cluster" data-entity="NginxServer" data-source-line="7" data-uid="ent0004" id="cluster_NginxServer"><polygon fill="none" points="103.7285,278.0969,113.7285,268.0969,758.7285,268.0969,758.7285,369.3969,748.7285,379.3969,103.7285,379.3969,103.7285,278.0969" style="stroke:#696969;stroke-width:1;"/><line style="stroke:#696969;stroke-width:1;" x1="748.7285" x2="758.7285" y1="278.0969" y2="268.0969"/><line style="stroke:#696969;stroke-width:1;" x1="103.7285" x2="748.7285" y1="278.0969" y2="278.0969"/><line style="stroke:#696969;stroke-width:1;" x1="748.7285" x2="748.7285" y1="278.0969" y2="379.3969"/><text fill="#000000" font-family="sans-serif" font-size="14" font-weight="bold" lengthAdjust="spacing" textLength="117.3594" x="368.5488" y="294.092">Servidor Nginx</text></g><!--cluster K8sCluster--><g class="cluster" data-entity="K8sCluster" data-source-line="13" data-uid="ent0007" id="cluster_K8sCluster"><path d="M92.8204,482.1392 C117.8601,432.2887 157.2768,437.6028 189.4739,474.1303 C223.6302,423.0593 253.7013,422.3938 286.6461,475.263 C317.5932,436.4121 345.9606,439.3845 373.0614,479.4736 C398.6363,426.939 439.7709,436.2003 468.1549,476.5992 C503.5816,419.9628 540.5664,422.1576 575.753,476.8313 C594.9456,433.158 632.1686,426.5378 660.5969,467.5818 C691.7244,416.004 725.6889,416.878 757.2237,467.1956 C785.9496,415.5752 826.9499,423.6338 855.2183,467.6644 C882.6298,423.2943 925.1584,410.7562 955.7821,464.3675 C982.4951,427.5298 1021.2256,429.1417 1042.2794,470.618 C1073.7044,432.681 1111.3319,431.9431 1136.294,477.8637 C1166.9346,427.9221 1206.4465,436.0119 1237.4464,477.4659 C1268.1592,436.7951 1303.0943,441.2116 1331.7428,479.9182 C1353.3842,427.3082 1399.1304,424.9711 1425.7285,475.3969 C1430.7723,473.8794 1434.5905,476.9984 1433.7782,482.3049 C1498.5096,514.528 1491.6404,561.1764 1441.2579,600.6735 C1499.3642,634.5624 1496.1821,689.7797 1444.9158,726.8397 C1505.5562,765.8804 1487.3896,815.27 1434.8048,844.5881 C1494.2905,889.5045 1483.2167,936.021 1418.7285,964.2869 C1422.1276,961.6594 1424.595,962.9096 1425.1752,966.9943 C1398.108,1013.7315 1356.1676,1010.0271 1325.5134,971.1708 C1303.9139,1010.2395 1258.8783,1020.5967 1233.1733,975.685 C1208.9406,1022.7469 1172.8546,1018.0302 1143.768,980.8355 C1112.1384,1031.97 1072.7042,1033.883 1043.3818,978.6577 C1013.7226,1021.21 980.6025,1017.9602 950.2135,979.4971 C919.7926,1018.7326 890.7893,1023.2407 857.7933,982.4718 C823.9839,1017.7491 793.0124,1021.6899 767.7766,973.2527 C734.0031,1032.0586 700.1501,1023.4251 662.7117,976.9087 C640.8478,1017.9419 598.2876,1018.2429 573.6229,980.0585 C539.932,1014.6404 510.3337,1015.596 483.801,971.85 C448.3705,1030.999 416.3983,1032.2822 377.2212,975.288 C351.8953,1009.0101 315.7834,1011.8847 294.3822,970.9341 C269.4721,1012.5657 229.1621,1024.9391 197.0036,978.9938 C154.6442,1020.0738 104.4265,1016.168 80.7285,957.2869 C86.8805,951.1894 91.622,951.7456 94.8709,960.1233 C26.7617,934.3357 23.1626,885.143 77.8065,841.6715 C25.8511,801.6322 40.6794,763.6075 87.5953,732.4276 C20.523,694.5048 26.6649,652.858 79.3625,607.0693 C6,563.8669 22.8832,503.2613 87.7285,468.3969 C96.2932,469.2687 98.5676,475.9643 92.8204,482.1392" fill="none" style="stroke:#696969;stroke-width:1;"/><text fill="#000000" font-family="sans-serif" font-size="14" font-weight="bold" lengthAdjust="spacing" textLength="199.1514" x="653.6528" y="486.392">Cluster Kubernetes (K8s)</text></g><!--cluster APIGateway--><g class="cluster" data-entity="APIGateway" data-source-line="14" data-uid="ent0008" id="cluster_APIGateway"><polygon fill="none" points="327.7285,521.3969,337.7285,511.3969,609.7285,511.3969,609.7285,612.6869,599.7285,622.6869,327.7285,622.6869,327.7285,521.3969" style="stroke:#696969;stroke-width:1;"/><line style="stroke:#696969;stroke-width:1;" x1="599.7285" x2="609.7285" y1="521.3969" y2="511.3969"/><line style="stroke:#696969;stroke-width:1;" x1="327.7285" x2="599.7285" y1="521.3969" y2="521.3969"/><line style="stroke:#696969;stroke-width:1;" x1="599.7285" x2="599.7285" y1="521.3969" y2="622.6869"/><text fill="#000000" font-family="sans-serif" font-size="14" font-weight="bold" lengthAdjust="spacing" textLength="206.7324" x="361.3622" y="537.392">API Gateway / K8s Ingress</text></g><!--cluster K8sNode1--><g class="cluster" data-entity="K8sNode1" data-source-line="18" data-uid="ent0010" id="cluster_K8sNode1"><polygon fill="none" points="104.7285,681.6869,114.7285,671.6869,733.7285,671.6869,733.7285,930.2869,723.7285,940.2869,104.7285,940.2869,104.7285,681.6869" style="stroke:#696969;stroke-width:1;"/><line style="stroke:#696969;stroke-width:1;" x1="723.7285" x2="733.7285" y1="681.6869" y2="671.6869"/><line style="stroke:#696969;stroke-width:1;" x1="104.7285" x2="723.7285" y1="681.6869" y2="681.6869"/><line style="stroke:#696969;stroke-width:1;" x1="723.7285" x2="723.7285" y1="681.6869" y2="940.2869"/><text fill="#000000" font-family="sans-serif" font-size="14" font-weight="bold" lengthAdjust="spacing" textLength="89.3867" x="370.5351" y="697.682">Nodo K8s 1</text></g><!--cluster Pod MS-Declaraciones--><g class="cluster" data-entity="Pod MS-Declaraciones" data-source-line="19" data-uid="ent0011" id="cluster_Pod MS-Declaraciones"><rect fill="none" height="180.6" rx="3.5" ry="3.5" style="stroke:#696969;stroke-width:1;" width="270" x="136.7285" y="727.6869"/><path d="M321.8515,727.6869 L321.8515,736.9837 L311.8515,746.9837 L136.7285,746.9837" fill="none" style="stroke:#696969;stroke-width:1;"/><text fill="#000000" font-family="sans-serif" font-size="14" font-weight="bold" lengthAdjust="spacing" textLength="175.123" x="139.7285" y="741.682">Pod MS-Declaraciones</text></g><!--cluster DockerMSDeclaraciones--><g class="cluster" data-entity="DockerMSDeclaraciones" data-source-line="20" data-uid="ent0012" id="cluster_DockerMSDeclaraciones"><rect fill="none" height="113.6" rx="3.5" ry="3.5" style="stroke:#696969;stroke-width:1;" width="222" x="160.7285" y="770.6869"/><polygon fill="none" points="365.7285,775.6869,365.7285,789.6869,377.7285,789.6869,377.7285,781.6869,371.7285,775.6869,365.7285,775.6869" style="stroke:#696969;stroke-width:1;"/><line style="stroke:#696969;stroke-width:1;" x1="371.7285" x2="371.7285" y1="775.6869" y2="781.6869"/><line style="stroke:#696969;stroke-width:1;" x1="377.7285" x2="371.7285" y1="781.6869" y2="781.6869"/><text fill="#000000" font-family="sans-serif" font-size="14" font-weight="bold" lengthAdjust="spacing" textLength="206.0693" x="168.6938" y="785.682">Docker: MS-Declaraciones</text></g><!--cluster Pod MS-Asignaciones--><g class="cluster" data-entity="Pod MS-Asignaciones" data-source-line="24" data-uid="ent0014" id="cluster_Pod MS-Asignaciones"><rect fill="none" height="180.6" rx="3.5" ry="3.5" style="stroke:#696969;stroke-width:1;" width="263" x="430.7285" y="727.6869"/><path d="M609.2411,727.6869 L609.2411,736.9837 L599.2411,746.9837 L430.7285,746.9837" fill="none" style="stroke:#696969;stroke-width:1;"/><text fill="#000000" font-family="sans-serif" font-size="14" font-weight="bold" lengthAdjust="spacing" textLength="168.5127" x="433.7285" y="741.682">Pod MS-Asignaciones</text></g><!--cluster DockerMSAsignaciones--><g class="cluster" data-entity="DockerMSAsignaciones" data-source-line="25" data-uid="ent0015" id="cluster_DockerMSAsignaciones"><rect fill="none" height="113.6" rx="3.5" ry="3.5" style="stroke:#696969;stroke-width:1;" width="215" x="454.7285" y="770.6869"/><polygon fill="none" points="652.7285,775.6869,652.7285,789.6869,664.7285,789.6869,664.7285,781.6869,658.7285,775.6869,652.7285,775.6869" style="stroke:#696969;stroke-width:1;"/><line style="stroke:#696969;stroke-width:1;" x1="658.7285" x2="658.7285" y1="775.6869" y2="781.6869"/><line style="stroke:#696969;stroke-width:1;" x1="664.7285" x2="658.7285" y1="781.6869" y2="781.6869"/><text fill="#000000" font-family="sans-serif" font-size="14" font-weight="bold" lengthAdjust="spacing" textLength="199.459" x="462.499" y="785.682">Docker: MS-Asignaciones</text></g><!--cluster K8sNode2--><g class="cluster" data-entity="K8sNode2" data-source-line="30" data-uid="ent0017" id="cluster_K8sNode2"><polygon fill="none" points="773.7285,681.6869,783.7285,671.6869,1401.7285,671.6869,1401.7285,930.2869,1391.7285,940.2869,773.7285,940.2869,773.7285,681.6869" style="stroke:#696969;stroke-width:1;"/><line style="stroke:#696969;stroke-width:1;" x1="1391.7285" x2="1401.7285" y1="681.6869" y2="671.6869"/><line style="stroke:#696969;stroke-width:1;" x1="773.7285" x2="1391.7285" y1="681.6869" y2="681.6869"/><line style="stroke:#696969;stroke-width:1;" x1="1391.7285" x2="1391.7285" y1="681.6869" y2="940.2869"/><text fill="#000000" font-family="sans-serif" font-size="14" font-weight="bold" lengthAdjust="spacing" textLength="89.3867" x="1039.0351" y="697.682">Nodo K8s 2</text></g><!--cluster Pod MS-Especialistas--><g class="cluster" data-entity="Pod MS-Especialistas" data-source-line="31" data-uid="ent0018" id="cluster_Pod MS-Especialistas"><rect fill="none" height="180.6" rx="3.5" ry="3.5" style="stroke:#696969;stroke-width:1;" width="261" x="805.7285" y="727.6869"/><path d="M982.6894,727.6869 L982.6894,736.9837 L972.6894,746.9837 L805.7285,746.9837" fill="none" style="stroke:#696969;stroke-width:1;"/><text fill="#000000" font-family="sans-serif" font-size="14" font-weight="bold" lengthAdjust="spacing" textLength="166.9609" x="808.7285" y="741.682">Pod MS-Especialistas</text></g><!--cluster DockerMSEspecialistas--><g class="cluster" data-entity="DockerMSEspecialistas" data-source-line="32" data-uid="ent0019" id="cluster_DockerMSEspecialistas"><rect fill="none" height="113.6" rx="3.5" ry="3.5" style="stroke:#696969;stroke-width:1;" width="213" x="829.7285" y="770.6869"/><polygon fill="none" points="1025.7285,775.6869,1025.7285,789.6869,1037.7285,789.6869,1037.7285,781.6869,1031.7285,775.6869,1025.7285,775.6869" style="stroke:#696969;stroke-width:1;"/><line style="stroke:#696969;stroke-width:1;" x1="1031.7285" x2="1031.7285" y1="775.6869" y2="781.6869"/><line style="stroke:#696969;stroke-width:1;" x1="1037.7285" x2="1031.7285" y1="781.6869" y2="781.6869"/><text fill="#000000" font-family="sans-serif" font-size="14" font-weight="bold" lengthAdjust="spacing" textLength="197.9072" x="837.2748" y="785.682">Docker: MS-Especialistas</text></g><!--cluster Pod MS-Notificaciones--><g class="cluster" data-entity="Pod MS-Notificaciones" data-source-line="36" data-uid="ent0021" id="cluster_Pod MS-Notificaciones"><rect fill="none" height="180.6" rx="3.5" ry="3.5" style="stroke:#696969;stroke-width:1;" width="271" x="1090.7285" y="727.6869"/><path d="M1277.3007,727.6869 L1277.3007,736.9837 L1267.3007,746.9837 L1090.7285,746.9837" fill="none" style="stroke:#696969;stroke-width:1;"/><text fill="#000000" font-family="sans-serif" font-size="14" font-weight="bold" lengthAdjust="spacing" textLength="176.5723" x="1093.7285" y="741.682">Pod MS-Notificaciones</text></g><!--cluster DockerMSNotificaciones--><g class="cluster" data-entity="DockerMSNotificaciones" data-source-line="37" data-uid="ent0022" id="cluster_DockerMSNotificaciones"><rect fill="none" height="113.6" rx="3.5" ry="3.5" style="stroke:#696969;stroke-width:1;" width="223" x="1114.7285" y="770.6869"/><polygon fill="none" points="1320.7285,775.6869,1320.7285,789.6869,1332.7285,789.6869,1332.7285,781.6869,1326.7285,775.6869,1320.7285,775.6869" style="stroke:#696969;stroke-width:1;"/><line style="stroke:#696969;stroke-width:1;" x1="1326.7285" x2="1326.7285" y1="775.6869" y2="781.6869"/><line style="stroke:#696969;stroke-width:1;" x1="1332.7285" x2="1326.7285" y1="781.6869" y2="781.6869"/><text fill="#000000" font-family="sans-serif" font-size="14" font-weight="bold" lengthAdjust="spacing" textLength="207.5186" x="1122.4692" y="785.682">Docker: MS-Notificaciones</text></g><!--cluster DockerRegistry--><g class="cluster" data-entity="DockerRegistry" data-source-line="46" data-uid="ent0025" id="cluster_DockerRegistry"><polygon fill="none" points="1114.7285,53.2969,1124.7285,43.2969,1809.7285,43.2969,1809.7285,369.3969,1799.7285,379.3969,1114.7285,379.3969,1114.7285,53.2969" style="stroke:#696969;stroke-width:1;"/><line style="stroke:#696969;stroke-width:1;" x1="1799.7285" x2="1809.7285" y1="53.2969" y2="43.2969"/><line style="stroke:#696969;stroke-width:1;" x1="1114.7285" x2="1799.7285" y1="53.2969" y2="53.2969"/><line style="stroke:#696969;stroke-width:1;" x1="1799.7285" x2="1799.7285" y1="53.2969" y2="379.3969"/><text fill="#000000" font-family="sans-serif" font-size="14" font-weight="bold" lengthAdjust="spacing" textLength="126.2734" x="1395.0917" y="69.292">Docker Registry</text></g><!--entity AngularAppSupervisores--><g class="entity" data-entity="AngularAppSupervisores" data-source-line="8" data-uid="ent0005" id="entity_AngularAppSupervisores"><rect fill="#F1F1F1" height="39.2969" rx="3.5" ry="3.5" style="stroke:#181818;stroke-width:0.5;" width="276.292" x="438.5785" y="316.0969"/><polygon fill="#F1F1F1" points="697.8704,321.0969,697.8704,335.0969,709.8704,335.0969,709.8704,327.0969,703.8704,321.0969,697.8704,321.0969" style="stroke:#181818;stroke-width:0.5;"/><line style="stroke:#181818;stroke-width:0.5;" x1="703.8704" x2="703.8704" y1="321.0969" y2="327.0969"/><line style="stroke:#181818;stroke-width:0.5;" x1="709.8704" x2="703.8704" y1="327.0969" y2="327.0969"/><text fill="#000000" font-family="sans-serif" font-size="14" lengthAdjust="spacing" textLength="246.292" x="448.5785" y="342.092">App Supervisores (Angular Docker)</text></g><!--entity AngularAppEspecialistas--><g class="entity" data-entity="AngularAppEspecialistas" data-source-line="9" data-uid="ent0006" id="entity_AngularAppEspecialistas"><rect fill="#F1F1F1" height="39.2969" rx="3.5" ry="3.5" style="stroke:#181818;stroke-width:0.5;" width="275.8203" x="127.8185" y="316.0969"/><polygon fill="#F1F1F1" points="386.6388,321.0969,386.6388,335.0969,398.6388,335.0969,398.6388,327.0969,392.6388,321.0969,386.6388,321.0969" style="stroke:#181818;stroke-width:0.5;"/><line style="stroke:#181818;stroke-width:0.5;" x1="392.6388" x2="392.6388" y1="321.0969" y2="327.0969"/><line style="stroke:#181818;stroke-width:0.5;" x1="398.6388" x2="392.6388" y1="327.0969" y2="327.0969"/><text fill="#000000" font-family="sans-serif" font-size="14" lengthAdjust="spacing" textLength="245.8203" x="137.8185" y="342.092">App Especialistas (Angular Docker)</text></g><!--entity Gateway--><g class="entity" data-entity="Gateway" data-source-line="15" data-uid="ent0009" id="entity_Gateway"><rect fill="#F1F1F1" height="39.2969" rx="3.5" ry="3.5" style="stroke:#181818;stroke-width:0.5;" width="91.8447" x="412.8085" y="559.3969"/><polygon fill="#F1F1F1" points="487.6532,564.3969,487.6532,578.3969,499.6532,578.3969,499.6532,570.3969,493.6532,564.3969,487.6532,564.3969" style="stroke:#181818;stroke-width:0.5;"/><line style="stroke:#181818;stroke-width:0.5;" x1="493.6532" x2="493.6532" y1="564.3969" y2="570.3969"/><line style="stroke:#181818;stroke-width:0.5;" x1="499.6532" x2="493.6532" y1="570.3969" y2="570.3969"/><text fill="#000000" font-family="sans-serif" font-size="14" lengthAdjust="spacing" textLength="61.8447" x="422.8085" y="585.392">Gateway</text></g><!--entity MSDeclaraciones--><g class="entity" data-entity="MSDeclaraciones" data-source-line="21" data-uid="ent0013" id="entity_MSDeclaraciones"><rect fill="#F1F1F1" height="62.5938" rx="3.5" ry="3.5" style="stroke:#181818;stroke-width:0.5;" width="175.7686" x="190.8485" y="805.6869"/><rect fill="#F1F1F1" height="10" style="stroke:#181818;stroke-width:0.5;" width="15" x="346.617" y="810.6869"/><rect fill="#F1F1F1" height="2" style="stroke:#181818;stroke-width:0.5;" width="4" x="344.617" y="812.6869"/><rect fill="#F1F1F1" height="2" style="stroke:#181818;stroke-width:0.5;" width="4" x="344.617" y="816.6869"/><text fill="#000000" font-family="sans-serif" font-size="14" lengthAdjust="spacing" textLength="135.7686" x="205.8485" y="838.682">[MS-Declaraciones]</text><text fill="#000000" font-family="sans-serif" font-size="14" lengthAdjust="spacing" textLength="92.7773" x="205.8485" y="854.9789">(Spring Boot)</text></g><!--entity MSAsignaciones--><g class="entity" data-entity="MSAsignaciones" data-source-line="26" data-uid="ent0016" id="entity_MSAsignaciones"><rect fill="#F1F1F1" height="62.5938" rx="3.5" ry="3.5" style="stroke:#181818;stroke-width:0.5;" width="168.9736" x="485.2385" y="805.6869"/><rect fill="#F1F1F1" height="10" style="stroke:#181818;stroke-width:0.5;" width="15" x="634.2121" y="810.6869"/><rect fill="#F1F1F1" height="2" style="stroke:#181818;stroke-width:0.5;" width="4" x="632.2121" y="812.6869"/><rect fill="#F1F1F1" height="2" style="stroke:#181818;stroke-width:0.5;" width="4" x="632.2121" y="816.6869"/><text fill="#000000" font-family="sans-serif" font-size="14" lengthAdjust="spacing" textLength="128.9736" x="500.2385" y="838.682">[MS-Asignaciones]</text><text fill="#000000" font-family="sans-serif" font-size="14" lengthAdjust="spacing" textLength="92.7773" x="500.2385" y="854.9789">(Spring Boot)</text></g><!--entity MSEspecialistas--><g class="entity" data-entity="MSEspecialistas" data-source-line="33" data-uid="ent0020" id="entity_MSEspecialistas"><rect fill="#F1F1F1" height="62.5938" rx="3.5" ry="3.5" style="stroke:#181818;stroke-width:0.5;" width="167.1826" x="846.1385" y="805.6869"/><rect fill="#F1F1F1" height="10" style="stroke:#181818;stroke-width:0.5;" width="15" x="993.3211" y="810.6869"/><rect fill="#F1F1F1" height="2" style="stroke:#181818;stroke-width:0.5;" width="4" x="991.3211" y="812.6869"/><rect fill="#F1F1F1" height="2" style="stroke:#181818;stroke-width:0.5;" width="4" x="991.3211" y="816.6869"/><text fill="#000000" font-family="sans-serif" font-size="14" lengthAdjust="spacing" textLength="127.1826" x="861.1385" y="838.682">[MS-Especialistas]</text><text fill="#000000" font-family="sans-serif" font-size="14" lengthAdjust="spacing" textLength="92.7773" x="861.1385" y="854.9789">(Spring Boot)</text></g><!--entity MSNotificaciones--><g class="entity" data-entity="MSNotificaciones" data-source-line="38" data-uid="ent0023" id="entity_MSNotificaciones"><rect fill="#F1F1F1" height="62.5938" rx="3.5" ry="3.5" style="stroke:#181818;stroke-width:0.5;" width="175.3857" x="1131.0385" y="805.6869"/><rect fill="#F1F1F1" height="10" style="stroke:#181818;stroke-width:0.5;" width="15" x="1286.4242" y="810.6869"/><rect fill="#F1F1F1" height="2" style="stroke:#181818;stroke-width:0.5;" width="4" x="1284.4242" y="812.6869"/><rect fill="#F1F1F1" height="2" style="stroke:#181818;stroke-width:0.5;" width="4" x="1284.4242" y="816.6869"/><text fill="#000000" font-family="sans-serif" font-size="14" lengthAdjust="spacing" textLength="135.3857" x="1146.0385" y="838.682">[MS-Notificaciones]</text><text fill="#000000" font-family="sans-serif" font-size="14" lengthAdjust="spacing" textLength="92.7773" x="1146.0385" y="854.9789">(Spring Boot)</text></g><!--entity ImgAppSup--><g class="entity" data-entity="ImgAppSup" data-source-line="47" data-uid="ent0026" id="entity_ImgAppSup"><rect fill="#F1F1F1" height="39.2969" rx="3.5" ry="3.5" style="stroke:#181818;stroke-width:0.5;" width="183.8838" x="1157.7885" y="91.2969"/><polygon fill="#F1F1F1" points="1324.6722,96.2969,1324.6722,110.2969,1336.6722,110.2969,1336.6722,102.2969,1330.6722,96.2969,1324.6722,96.2969" style="stroke:#181818;stroke-width:0.5;"/><line style="stroke:#181818;stroke-width:0.5;" x1="1330.6722" x2="1330.6722" y1="96.2969" y2="102.2969"/><line style="stroke:#181818;stroke-width:0.5;" x1="1336.6722" x2="1330.6722" y1="102.2969" y2="102.2969"/><text fill="#000000" font-family="sans-serif" font-size="14" lengthAdjust="spacing" textLength="153.8838" x="1167.7885" y="117.292">Img: AppSupervisores</text></g><!--entity ImgAppEsp--><g class="entity" data-entity="ImgAppEsp" data-source-line="48" data-uid="ent0027" id="entity_ImgAppEsp"><rect fill="#F1F1F1" height="39.2969" rx="3.5" ry="3.5" style="stroke:#181818;stroke-width:0.5;" width="183.4121" x="1377.0185" y="91.2969"/><polygon fill="#F1F1F1" points="1543.4306,96.2969,1543.4306,110.2969,1555.4306,110.2969,1555.4306,102.2969,1549.4306,96.2969,1543.4306,96.2969" style="stroke:#181818;stroke-width:0.5;"/><line style="stroke:#181818;stroke-width:0.5;" x1="1549.4306" x2="1549.4306" y1="96.2969" y2="102.2969"/><line style="stroke:#181818;stroke-width:0.5;" x1="1555.4306" x2="1549.4306" y1="102.2969" y2="102.2969"/><text fill="#000000" font-family="sans-serif" font-size="14" lengthAdjust="spacing" textLength="153.4121" x="1387.0185" y="117.292">Img: AppEspecialistas</text></g><!--entity ImgMSDec--><g class="entity" data-entity="ImgMSDec" data-source-line="49" data-uid="ent0028" id="entity_ImgMSDec"><rect fill="#F1F1F1" height="39.2969" rx="3.5" ry="3.5" style="stroke:#181818;stroke-width:0.5;" width="190.665" x="1595.3985" y="91.2969"/><polygon fill="#F1F1F1" points="1769.0635,96.2969,1769.0635,110.2969,1781.0635,110.2969,1781.0635,102.2969,1775.0635,96.2969,1769.0635,96.2969" style="stroke:#181818;stroke-width:0.5;"/><line style="stroke:#181818;stroke-width:0.5;" x1="1775.0635" x2="1775.0635" y1="96.2969" y2="102.2969"/><line style="stroke:#181818;stroke-width:0.5;" x1="1781.0635" x2="1775.0635" y1="102.2969" y2="102.2969"/><text fill="#000000" font-family="sans-serif" font-size="14" lengthAdjust="spacing" textLength="160.665" x="1605.3985" y="117.292">Img: MS-Declaraciones</text></g><!--entity ImgMSAsi--><g class="entity" data-entity="ImgMSAsi" data-source-line="50" data-uid="ent0029" id="entity_ImgMSAsi"><rect fill="#F1F1F1" height="39.2969" rx="3.5" ry="3.5" style="stroke:#181818;stroke-width:0.5;" width="183.8701" x="1158.7885" y="316.0969"/><polygon fill="#F1F1F1" points="1325.6586,321.0969,1325.6586,335.0969,1337.6586,335.0969,1337.6586,327.0969,1331.6586,321.0969,1325.6586,321.0969" style="stroke:#181818;stroke-width:0.5;"/><line style="stroke:#181818;stroke-width:0.5;" x1="1331.6586" x2="1331.6586" y1="321.0969" y2="327.0969"/><line style="stroke:#181818;stroke-width:0.5;" x1="1337.6586" x2="1331.6586" y1="327.0969" y2="327.0969"/><text fill="#000000" font-family="sans-serif" font-size="14" lengthAdjust="spacing" textLength="153.8701" x="1168.7885" y="342.092">Img: MS-Asignaciones</text></g><!--entity ImgMSEsp--><g class="entity" data-entity="ImgMSEsp" data-source-line="51" data-uid="ent0030" id="entity_ImgMSEsp"><rect fill="#F1F1F1" height="39.2969" rx="3.5" ry="3.5" style="stroke:#181818;stroke-width:0.5;" width="182.0791" x="1377.6885" y="316.0969"/><polygon fill="#F1F1F1" points="1542.7676,321.0969,1542.7676,335.0969,1554.7676,335.0969,1554.7676,327.0969,1548.7676,321.0969,1542.7676,321.0969" style="stroke:#181818;stroke-width:0.5;"/><line style="stroke:#181818;stroke-width:0.5;" x1="1548.7676" x2="1548.7676" y1="321.0969" y2="327.0969"/><line style="stroke:#181818;stroke-width:0.5;" x1="1554.7676" x2="1548.7676" y1="327.0969" y2="327.0969"/><text fill="#000000" font-family="sans-serif" font-size="14" lengthAdjust="spacing" textLength="152.0791" x="1387.6885" y="342.092">Img: MS-Especialistas</text></g><!--entity ImgMSNot--><g class="entity" data-entity="ImgMSNot" data-source-line="52" data-uid="ent0031" id="entity_ImgMSNot"><rect fill="#F1F1F1" height="39.2969" rx="3.5" ry="3.5" style="stroke:#181818;stroke-width:0.5;" width="190.2822" x="1594.5885" y="316.0969"/><polygon fill="#F1F1F1" points="1767.8707,321.0969,1767.8707,335.0969,1779.8707,335.0969,1779.8707,327.0969,1773.8707,321.0969,1767.8707,321.0969" style="stroke:#181818;stroke-width:0.5;"/><line style="stroke:#181818;stroke-width:0.5;" x1="1773.8707" x2="1773.8707" y1="321.0969" y2="327.0969"/><line style="stroke:#181818;stroke-width:0.5;" x1="1779.8707" x2="1773.8707" y1="327.0969" y2="327.0969"/><text fill="#000000" font-family="sans-serif" font-size="14" lengthAdjust="spacing" textLength="160.2822" x="1604.5885" y="342.092">Img: MS-Notificaciones</text></g><!--entity Usuarios--><g class="entity" data-entity="Usuarios" data-source-line="4" data-uid="ent0002" id="entity_Usuarios"><ellipse cx="681.7299" cy="81.2969" fill="#454645" rx="8" ry="8" style="stroke:#454645;stroke-width:0.5;"/><path d="M681.7299,89.2969 L681.7299,116.2969 M668.7299,97.2969 L694.7299,97.2969 M681.7299,116.2969 L668.7299,131.2969 M681.7299,116.2969 L694.7299,131.2969" fill="none" style="stroke:#454645;stroke-width:0.5;"/><text fill="#454645" font-family="sans-serif" font-size="14" lengthAdjust="spacing" textLength="261.543" x="550.9585" y="145.792">Usuarios (Supervisores/Especialistas)</text></g><!--entity DatabaseSIAD--><g class="entity" data-entity="DatabaseSIAD" data-source-line="44" data-uid="ent0024" id="entity_DatabaseSIAD"><path d="M688.1285,1045.2869 C688.1285,1035.2869 748.7281,1035.2869 748.7281,1035.2869 C748.7281,1035.2869 809.3277,1035.2869 809.3277,1045.2869 L809.3277,1086.8806 C809.3277,1096.8806 748.7281,1096.8806 748.7281,1096.8806 C748.7281,1096.8806 688.1285,1096.8806 688.1285,1086.8806 L688.1285,1045.2869" fill="#00FFFF" style="stroke:#454645;stroke-width:0.5;"/><path d="M688.1285,1045.2869 C688.1285,1055.2869 748.7281,1055.2869 748.7281,1055.2869 C748.7281,1055.2869 809.3277,1055.2869 809.3277,1045.2869" fill="none" style="stroke:#454645;stroke-width:0.5;"/><text fill="#454645" font-family="sans-serif" font-size="14" lengthAdjust="spacing" textLength="101.1992" x="698.1285" y="1072.282">Base de Datos</text><text fill="#454645" font-family="sans-serif" font-size="14" lengthAdjust="spacing" textLength="91.6768" x="698.1285" y="1088.5789">(PostgreSQL)</text></g><!--link Usuarios to NginxServer--><g class="link" data-entity-1="Usuarios" data-entity-2="NginxServer" data-source-line="56" data-uid="lnk32" id="link_Usuarios_NginxServer"><path d="M669.9685,149.2269 C667.2885,165.3769 667.8785,183.4469 678.7285,196.0969 C693.9585,213.8469 714.1985,187.5569 730.7285,204.0969 C740.946,214.3219 747.346,227.4262 751.1886,241.3736 C753.1099,248.3473 754.3919,255.5317 755.1921,262.6723 C755.3921,264.4574 755.0829,260.259 755.2251,262.0347" fill="none" id="Usuarios-to-NginxServer" style="stroke:#454645;stroke-width:1;"/><polygon fill="#454645" points="755.7044,268.0155,758.9728,258.7248,755.305,263.0315,750.9983,259.3638,755.7044,268.0155" style="stroke:#454645;stroke-width:1;"/><text fill="#000000" font-family="sans-serif" font-size="13" lengthAdjust="spacing" textLength="96.1733" x="679.7285" y="192.1638">Acceso HTTP/S</text></g><!--link AngularAppSupervisores to APIGateway--><g class="link" data-entity-1="AngularAppSupervisores" data-entity-2="APIGateway" data-source-line="57" data-uid="lnk33" id="link_AngularAppSupervisores_APIGateway"><path d="M576.2585,355.6769 C575.5635,383.6769 574.2135,437.9819 573.021,485.9144 C572.8719,491.9059 572.7253,497.7979 572.5827,503.5265 C572.5471,504.9587 572.5117,506.3806 572.4766,507.7913 C572.459,508.4967 572.4416,509.1993 572.4242,509.8989 C572.4154,510.2487 572.556,504.5997 572.5474,504.948" fill="none" id="AngularAppSupervisores-to-APIGateway" style="stroke:#454645;stroke-width:1;"/><polygon fill="#454645" points="572.3981,510.9461,576.6208,502.0485,572.5225,505.9477,568.6232,501.8494,572.3981,510.9461" style="stroke:#454645;stroke-width:1;"/><text fill="#000000" font-family="sans-serif" font-size="13" lengthAdjust="spacing" textLength="165.1851" x="575.7285" y="440.4638">API Calls (REST/GraphQL)</text></g><!--link AngularAppEspecialistas to APIGateway--><g class="link" data-entity-1="AngularAppEspecialistas" data-entity-2="APIGateway" data-source-line="58" data-uid="lnk34" id="link_AngularAppEspecialistas_APIGateway"><path d="M282.0785,355.6969 C305.2985,381.0969 350.5085,425.2269 399.7285,444.3969 C424.8385,454.1769 498.9385,436.5369 520.7285,452.3969 C532.6885,461.0994 541.7897,473.1281 548.715,486.3189 C552.1777,492.9143 555.0963,499.8002 557.5564,506.7061 C557.8639,507.5693 558.1642,508.4329 558.4576,509.2962 C558.6042,509.7279 558.7492,510.1595 558.8923,510.591 C558.9639,510.8067 557.1653,505.3212 557.2361,505.5369" fill="none" id="AngularAppEspecialistas-to-APIGateway" style="stroke:#454645;stroke-width:1;"/><polygon fill="#454645" points="559.1058,511.2381,560.102,501.4397,557.5477,506.4871,552.5004,503.9328,559.1058,511.2381" style="stroke:#454645;stroke-width:1;"/><text fill="#000000" font-family="sans-serif" font-size="13" lengthAdjust="spacing" textLength="165.1851" x="400.7285" y="440.4638">API Calls (REST/GraphQL)</text></g><!--link APIGateway to MSDeclaraciones--><g class="link" data-entity-1="APIGateway" data-entity-2="MSDeclaraciones" data-source-line="60" data-uid="lnk35" id="link_APIGateway_MSDeclaraciones"><path d="M539.1251,622.9094 C539.0325,623.0053 538.9398,623.1012 538.8469,623.197 C538.4753,623.58 538.1014,623.9615 537.7252,624.3412 C536.9729,625.1006 536.2114,625.853 535.4413,626.5968 C533.901,628.0842 532.3259,629.5369 530.7194,630.9416 C527.5063,633.7509 524.1672,636.3681 520.7285,638.6869 C500.9185,652.0469 490.2285,643.4269 469.7285,655.6869 C401.4485,696.5469 341.3945,760.9054 307.6045,800.6554" fill="none" id="APIGateway-to-MSDeclaraciones" style="stroke:#454645;stroke-width:1;"/><polygon fill="#454645" points="303.7185,805.2269,312.5952,800.9603,306.9568,801.4173,306.4999,795.7789,303.7185,805.2269" style="stroke:#454645;stroke-width:1;"/></g><!--link APIGateway to MSAsignaciones--><g class="link" data-entity-1="APIGateway" data-entity-2="MSAsignaciones" data-source-line="61" data-uid="lnk36" id="link_APIGateway_MSAsignaciones"><path d="M570.5619,622.7851 C570.5607,623.0832 570.5595,623.3825 570.5584,623.683 C570.5537,624.8847 570.5489,626.1042 570.544,627.3408 C570.5343,629.8138 570.5244,632.3548 570.5142,634.9563 C570.4734,645.3623 570.4288,656.7375 570.3822,668.6144 C570.196,716.1219 570.0016,765.6569 569.8716,799.3069" fill="none" id="APIGateway-to-MSAsignaciones" style="stroke:#454645;stroke-width:1;"/><polygon fill="#454645" points="569.8485,805.3069,573.8832,796.3224,569.8678,800.3069,565.8833,796.2915,569.8485,805.3069" style="stroke:#454645;stroke-width:1;"/></g><!--link APIGateway to MSEspecialistas--><g class="link" data-entity-1="APIGateway" data-entity-2="MSEspecialistas" data-source-line="62" data-uid="lnk37" id="link_APIGateway_MSEspecialistas"><path d="M610.3762,593.1068 C610.6055,593.1888 610.8355,593.2711 611.0663,593.3538 C611.9892,593.6846 612.9235,594.0212 613.8687,594.3635 C615.759,595.0481 617.6928,595.7556 619.666,596.4856 C623.6126,597.9456 627.7172,599.4958 631.9485,601.1331 C665.7985,614.2319 707.7535,632.9119 741.7285,655.6869 C806.8985,699.3769 866.1385,762.1405 900.0985,800.9705" fill="none" id="APIGateway-to-MSEspecialistas" style="stroke:#454645;stroke-width:1;"/><polygon fill="#454645" points="904.0485,805.4869,901.1344,796.079,900.7568,801.7232,895.1126,801.3456,904.0485,805.4869" style="stroke:#454645;stroke-width:1;"/></g><!--link APIGateway to MSNotificaciones--><g class="link" data-entity-1="APIGateway" data-entity-2="MSNotificaciones" data-source-line="63" data-uid="lnk38" id="link_APIGateway_MSNotificaciones"><path d="M610.1672,583.5357 C611.1109,583.6239 612.0687,583.7137 613.0406,583.8051 C614.9843,583.9879 616.9839,584.1772 619.0369,584.3729 C623.143,584.7642 627.4629,585.1812 631.9777,585.6233 C668.0956,589.1603 716.6803,594.31 767.9572,600.8756 C870.511,614.0069 983.8335,632.8019 1029.7285,655.6869 C1101.5585,691.5069 1160.7383,759.2403 1192.6883,800.5603" fill="none" id="APIGateway-to-MSNotificaciones" style="stroke:#454645;stroke-width:1;"/><polygon fill="#454645" points="1196.3585,805.3069,1194.0175,795.7403,1193.3,801.3514,1187.6888,800.6338,1196.3585,805.3069" style="stroke:#454645;stroke-width:1;"/></g><!--link MSDeclaraciones to DatabaseSIAD--><g class="link" data-entity-1="MSDeclaraciones" data-entity-2="DatabaseSIAD" data-source-line="66" data-uid="lnk39" id="link_MSDeclaraciones_DatabaseSIAD"><path d="M312.2185,868.6469 C348.5785,900.5169 409.5685,949.8969 469.7285,980.2869 C540.6785,1016.1169 623.6838,1038.5743 681.8038,1051.6043" fill="none" id="MSDeclaraciones-to-DatabaseSIAD" style="stroke:#454645;stroke-width:1;"/><polygon fill="#454645" points="687.6585,1052.9169,679.7515,1047.0449,682.7796,1051.8231,678.0014,1054.8511,687.6585,1052.9169" style="stroke:#454645;stroke-width:1;"/><text fill="#000000" font-family="sans-serif" font-size="13" lengthAdjust="spacing" textLength="56.7861" x="521.7285" y="1001.3538">JDBC/JPA</text></g><!--link MSAsignaciones to DatabaseSIAD--><g class="link" data-entity-1="MSAsignaciones" data-entity-2="DatabaseSIAD" data-source-line="67" data-uid="lnk40" id="link_MSAsignaciones_DatabaseSIAD"><path d="M585.5885,868.6969 C601.7485,898.6269 628.5185,944.6969 657.7285,980.2869 C673.8985,999.9769 689.9779,1015.5802 707.4879,1030.9402" fill="none" id="MSAsignaciones-to-DatabaseSIAD" style="stroke:#454645;stroke-width:1;"/><polygon fill="#454645" points="711.9985,1034.8969,707.8705,1025.9549,708.2397,1031.5996,702.5949,1031.9689,711.9985,1034.8969" style="stroke:#454645;stroke-width:1;"/><text fill="#000000" font-family="sans-serif" font-size="13" lengthAdjust="spacing" textLength="56.7861" x="679.7285" y="1001.3538">JDBC/JPA</text></g><!--link MSEspecialistas to DatabaseSIAD--><g class="link" data-entity-1="MSEspecialistas" data-entity-2="DatabaseSIAD" data-source-line="68" data-uid="lnk41" id="link_MSEspecialistas_DatabaseSIAD"><path d="M905.3185,868.6169 C870.5785,912.1969 811.0183,986.925 776.4883,1030.245" fill="none" id="MSEspecialistas-to-DatabaseSIAD" style="stroke:#454645;stroke-width:1;"/><polygon fill="#454645" points="772.7485,1034.9369,781.4861,1030.3923,775.865,1031.027,775.2303,1025.4059,772.7485,1034.9369" style="stroke:#454645;stroke-width:1;"/><text fill="#000000" font-family="sans-serif" font-size="13" lengthAdjust="spacing" textLength="56.7861" x="807.7285" y="1001.3538">JDBC/JPA</text></g><!--link MSNotificaciones to DatabaseSIAD--><g class="link" data-entity-1="MSNotificaciones" data-entity-2="DatabaseSIAD" data-source-line="69" data-uid="lnk42" id="link_MSNotificaciones_DatabaseSIAD"><path d="M1185.6685,868.6969 C1149.7385,900.5969 1089.4385,950.0069 1029.7285,980.2869 C958.1485,1016.5769 874.1381,1039.0168 815.5881,1051.9068" fill="none" id="MSNotificaciones-to-DatabaseSIAD" style="stroke:#454645;stroke-width:1;"/><polygon fill="#454645" points="809.7285,1053.1969,819.378,1055.1683,814.6115,1052.1219,817.6579,1047.3554,809.7285,1053.1969" style="stroke:#454645;stroke-width:1;"/><text fill="#000000" font-family="sans-serif" font-size="13" lengthAdjust="spacing" textLength="167.5146" x="1008.7285" y="1001.3538">JDBC/JPA (si es necesario)</text></g><!--link DockerRegistry to K8sNode1--><g class="link" data-entity-1="DockerRegistry" data-entity-2="K8sNode1" data-source-line="73" data-uid="lnk43" id="link_DockerRegistry_K8sNode1"><path d="M1810.3769,213.994 C1811.2866,215.0933 1812.1794,216.1924 1813.0551,217.2915 C1816.5583,221.6878 1819.7903,226.0827 1822.7555,230.4778 C1828.6859,239.268 1833.5486,248.0587 1837.3769,256.8625 C1845.0335,274.47 1848.5522,292.1294 1848.1985,309.9394 C1847.491,345.5594 1831.2935,381.7819 1801.7285,419.3969 C1526.9885,768.9269 1185.5185,389.1069 829.7285,655.6869 C793.2885,682.9919 767.526,727.0969 750.7572,764.8494 C746.565,774.2875 742.9349,783.3286 739.8407,791.6109 C738.2935,795.7521 736.8803,799.7035 735.5978,803.42 C734.9565,805.2783 736.2393,801.3837 735.6629,803.1189" fill="none" id="DockerRegistry-to-K8sNode1" style="stroke:#454645;stroke-width:1;stroke-dasharray:7.0,7.0;"/><polygon fill="#454645" points="733.7716,808.813,740.4047,801.5327,735.3477,804.0679,732.8125,799.011,733.7716,808.813" style="stroke:#454645;stroke-width:1;"/><text fill="#000000" font-family="sans-serif" font-size="13" lengthAdjust="spacing" textLength="126.5024" x="1792.7285" y="440.4638">Pull Imagen Docker</text></g><!--link DockerRegistry to K8sNode2--><g class="link" data-entity-1="DockerRegistry" data-entity-2="K8sNode2" data-source-line="74" data-uid="lnk44" id="link_DockerRegistry_K8sNode2"><path d="M1114.6873,202.5471 C1114.6707,202.9925 1114.6544,203.4391 1114.6384,203.8867 C1114.5744,205.6772 1114.5151,207.4849 1114.4608,209.3091 C1114.3524,212.9574 1114.2643,216.6714 1114.1997,220.4444 C1113.166,280.8119 1118.1385,356.2769 1141.7285,419.3969 C1188.0485,543.3069 1257.6385,540.5169 1322.7285,655.6869 C1325.3353,660.3 1327.8902,665.028 1330.3895,669.8392 C1330.7019,670.4406 1328.2689,665.7078 1328.5795,666.3118" fill="none" id="DockerRegistry-to-K8sNode2" style="stroke:#454645;stroke-width:1;stroke-dasharray:7.0,7.0;"/><polygon fill="#454645" points="1331.3242,671.6472,1330.7642,661.8143,1329.037,667.201,1323.6502,665.4738,1331.3242,671.6472" style="stroke:#454645;stroke-width:1;"/><text fill="#000000" font-family="sans-serif" font-size="13" lengthAdjust="spacing" textLength="126.5024" x="1152.7285" y="440.4638">Pull Imagen Docker</text></g><!--link DockerRegistry to NginxServer--><g class="link" data-entity-1="DockerRegistry" data-entity-2="NginxServer" data-source-line="75" data-uid="lnk45" id="link_DockerRegistry_NginxServer"><path d="M1114.3753,112.746 C1113.9917,112.7842 1113.5958,112.8237 1113.1879,112.8646 C1112.3722,112.9463 1111.5084,113.0334 1110.5982,113.126 C1103.3166,113.8665 1093.0673,114.9539 1080.7111,116.3866 C1055.9988,119.2519 1022.8591,123.4981 988.1797,129.1119 C918.821,140.3394 843.3035,157.0369 816.7285,179.0969 C788.2735,202.7169 771.841,240.7919 762.4897,273.3706 C761.3208,277.443 760.2625,281.4294 759.3053,285.2911 C759.1856,285.7738 759.0675,286.2545 758.951,286.7332 C758.8927,286.9726 760.2416,281.3787 760.1842,281.617" fill="none" id="DockerRegistry-to-NginxServer" style="stroke:#454645;stroke-width:1;stroke-dasharray:7.0,7.0;"/><polygon fill="#454645" points="758.7774,287.4498,764.776,279.6385,759.9497,282.5892,756.999,277.7628,758.7774,287.4498" style="stroke:#454645;stroke-width:1;"/><text fill="#000000" font-family="sans-serif" font-size="13" lengthAdjust="spacing" textLength="261.2886" x="817.7285" y="192.1638">Pull Imagen Docker (para Apps Angular)</text></g><!--SRC=[bLRDSjem4BxhARPSQWx09ASEXypmawOaXQ4nERKz25jnr1h98yjfCXqUg8UU-WXviQxy0vAD2U70oBlVhdQ_NQtqJZ-m3OD7lbPKQAAvZXbCEOqKtL08SStI9EOioXZqmEUfPeLybF98q82__1Fcyp9DMC1fZ02QWkVFHjCk8JJGKa7dBiseujB8iuIfHvvAnTA1OzFj01fMI4A4HA-TcT0O5zFWtor6A_1u-TrFCq5r7vrbXU4E-9i0_Wfht-mLOWIBY8kd79UlZ9of4cf-L6b-Zy52PvGaO0S9taX4MKmLJ6NmawbYjrA6O1lRugv6pN5_3ZXtk2LRGe9OPY5q9d661L1mawsPmcnDV3SVIkvmKUbj4aRB6LnHpNxHPnWO478LORHfiVDoLYahElRHbvfE6OVbT253cViwgxP62JkpABt71aBWKeOmztjJ5c1-s2vICDnu3tCtB3WP7h30JGhbt7SqDLVvBv2R17K27NwjU_h-JNX-ehY8O2obBfYh-NGyRabpvUPMdOIJKtCDhCninGc9sV2Ml6p8qRIsXufxRXVtlBMuJi-Un43DmgB0FIolS-3WMqXedgdJYxkG63uFtbBUkecLdQiw8JtNe2K_5_HAcV4OXrJJDKqnoR7vDqEUQfcYywLCDSu6_yldmlUqH9fnNeta8XUuPH7ogPwj_2fHcTUUdDac6a9jM1PJUnCLuXQ3PfyK5YW_P75mRA0cFzyj1et3cEDHse8_65BUOoq61zeXjq2vASPxcA3ygMW8vFTZdFsGPb5UXV1SL8ViBj5UxyAvnf2f862fX4-hrNBWayENKsvcJVkX-O09ZMEyGsul_TNWIj7a0IjFMcwZDtWW5inOrGTiG-tCgORMFS0DTQt_6vJEUQ1aQfW837yKOWfEvvFwfMByshsFkLvFnvF1zN94QcFwEBH9O3ksDXoEWC5BEI14CAoxQOekvjnmeEbcpL_-24Xag5x-Ki374yCKDVOHpXa1cO0vlWDen62if3dKdf2mmHcWQ8W-qUck6wrde8Vi1Yn1Dt6Nr4v-lt-nVmmCOPd5CNOxxY3A6N74uFna0xVxcpRW9LXBCq1sJwlkVm00]--></g></svg>