<svg xmlns="http://www.w3.org/2000/svg" xmlns:xlink="http://www.w3.org/1999/xlink" contentStyleType="text/css" data-diagram-type="DESCRIPTION" height="1272px" preserveAspectRatio="none" style="width:2500px;height:1272px;background:#FFFFFF;" version="1.1" viewBox="0 0 2500 1272" width="2500px" zoomAndPan="magnify"><title>Diagrama de Paquetes - Sistema de Asignaci&#243;n de Especialistas (SIAD)</title><defs/><g><g class="title" data-source-line="2"><text fill="#000000" font-family="sans-serif" font-size="14" font-weight="bold" lengthAdjust="spacing" textLength="560.6426" x="962.9737" y="22.9951">Diagrama de Paquetes - Sistema de Asignaci&#243;n de Especialistas (SIAD)</text></g><!--cluster Frontend (Aplicaciones Angular)--><g class="cluster" data-entity="Frontend (Aplicaciones Angular)" data-source-line="4" data-uid="ent0002" id="cluster_Frontend (Aplicaciones Angular)"><path d="M174.09,43.2969 L428.5148,43.2969 A5.25,5.25 0 0 1 432.0148,46.7969 L439.0148,65.5938 L1123.09,65.5938 A3.5,3.5 0 0 1 1126.59,69.0938 L1126.59,258.0969 A3.5,3.5 0 0 1 1123.09,261.5969 L174.09,261.5969 A3.5,3.5 0 0 1 170.59,258.0969 L170.59,46.7969 A3.5,3.5 0 0 1 174.09,43.2969" fill="none" style="stroke:#696969;stroke-width:1;"/><line style="stroke:#696969;stroke-width:1;" x1="170.59" x2="439.0148" y1="65.5938" y2="65.5938"/><text fill="#000000" font-family="sans-serif" font-size="14" font-weight="bold" lengthAdjust="spacing" textLength="255.4248" x="174.59" y="58.292">Frontend (Aplicaciones Angular)</text><text fill="#A9A9A9" font-family="sans-serif" font-size="10" font-style="italic" lengthAdjust="spacing" textLength="44.1211" x="630.5295" y="76.876">&#171;Frame&#187;</text></g><!--cluster AppSup--><g class="cluster" data-entity="AppSup" data-source-line="5" data-uid="ent0003" id="cluster_AppSup"><path d="M206.09,105.2969 L343.9211,105.2969 A5.25,5.25 0 0 1 347.4211,108.7969 L354.4211,127.5938 L626.09,127.5938 A3.5,3.5 0 0 1 629.59,131.0938 L629.59,226.0969 A3.5,3.5 0 0 1 626.09,229.5969 L206.09,229.5969 A3.5,3.5 0 0 1 202.59,226.0969 L202.59,108.7969 A3.5,3.5 0 0 1 206.09,105.2969" fill="none" style="stroke:#696969;stroke-width:1;"/><line style="stroke:#696969;stroke-width:1;" x1="202.59" x2="354.4211" y1="127.5938" y2="127.5938"/><text fill="#000000" font-family="sans-serif" font-size="14" font-weight="bold" lengthAdjust="spacing" textLength="138.8311" x="206.59" y="120.292">App Supervisores</text><text fill="#A9A9A9" font-family="sans-serif" font-size="10" font-style="italic" lengthAdjust="spacing" textLength="68.1104" x="386.0348" y="138.876">&#171;Application&#187;</text></g><!--cluster AppEsp--><g class="cluster" data-entity="AppEsp" data-source-line="9" data-uid="ent0006" id="cluster_AppEsp"><path d="M673.09,105.2969 L810.2033,105.2969 A5.25,5.25 0 0 1 813.7033,108.7969 L820.7033,127.5938 L1091.09,127.5938 A3.5,3.5 0 0 1 1094.59,131.0938 L1094.59,226.0969 A3.5,3.5 0 0 1 1091.09,229.5969 L673.09,229.5969 A3.5,3.5 0 0 1 669.59,226.0969 L669.59,108.7969 A3.5,3.5 0 0 1 673.09,105.2969" fill="none" style="stroke:#696969;stroke-width:1;"/><line style="stroke:#696969;stroke-width:1;" x1="669.59" x2="820.7033" y1="127.5938" y2="127.5938"/><text fill="#000000" font-family="sans-serif" font-size="14" font-weight="bold" lengthAdjust="spacing" textLength="138.1133" x="673.59" y="120.292">App Especialistas</text><text fill="#A9A9A9" font-family="sans-serif" font-size="10" font-style="italic" lengthAdjust="spacing" textLength="68.1104" x="852.0348" y="138.876">&#171;Application&#187;</text></g><!--cluster Backend (Microservicios Spring Boot)--><g class="cluster" data-entity="Backend (Microservicios Spring Boot)" data-source-line="15" data-uid="ent0009" id="cluster_Backend (Microservicios Spring Boot)"><path d="M68.09,451.8969 L363.3732,451.8969 A5.25,5.25 0 0 1 366.8732,455.3969 L373.8732,474.1937 L1956.09,474.1937 A3.5,3.5 0 0 1 1959.59,477.6937 L1959.59,1126.5769 A3.5,3.5 0 0 1 1956.09,1130.0769 L68.09,1130.0769 A3.5,3.5 0 0 1 64.59,1126.5769 L64.59,455.3969 A3.5,3.5 0 0 1 68.09,451.8969" fill="none" style="stroke:#696969;stroke-width:1;"/><line style="stroke:#696969;stroke-width:1;" x1="64.59" x2="373.8732" y1="474.1937" y2="474.1937"/><text fill="#000000" font-family="sans-serif" font-size="14" font-weight="bold" lengthAdjust="spacing" textLength="296.2832" x="68.59" y="466.892">Backend (Microservicios Spring Boot)</text><text fill="#A9A9A9" font-family="sans-serif" font-size="10" font-style="italic" lengthAdjust="spacing" textLength="40.8008" x="995.6896" y="485.476">&#171;Cloud&#187;</text></g><!--cluster MSDecl--><g class="cluster" data-entity="MSDecl" data-source-line="16" data-uid="ent0010" id="cluster_MSDecl"><path d="M100.09,513.8969 L277.6105,513.8969 A5.25,5.25 0 0 1 281.1105,517.3969 L288.1105,536.1937 L548.09,536.1937 A3.5,3.5 0 0 1 551.59,539.6937 L551.59,741.9869 A3.5,3.5 0 0 1 548.09,745.4869 L100.09,745.4869 A3.5,3.5 0 0 1 96.59,741.9869 L96.59,517.3969 A3.5,3.5 0 0 1 100.09,513.8969" fill="none" style="stroke:#696969;stroke-width:1;"/><line style="stroke:#696969;stroke-width:1;" x1="96.59" x2="288.1105" y1="536.1937" y2="536.1937"/><text fill="#000000" font-family="sans-serif" font-size="14" font-weight="bold" lengthAdjust="spacing" textLength="178.5205" x="100.59" y="528.892">Servicio Declaraciones</text><text fill="#A9A9A9" font-family="sans-serif" font-size="10" font-style="italic" lengthAdjust="spacing" textLength="75.1904" x="290.4948" y="547.476">&#171;Microservice&#187;</text></g><!--cluster MSAsig--><g class="cluster" data-entity="MSAsig" data-source-line="21" data-uid="ent0014" id="cluster_MSAsig"><path d="M1484.09,513.8969 L1655.0002,513.8969 A5.25,5.25 0 0 1 1658.5002,517.3969 L1665.5002,536.1937 L1924.09,536.1937 A3.5,3.5 0 0 1 1927.59,539.6937 L1927.59,741.9869 A3.5,3.5 0 0 1 1924.09,745.4869 L1484.09,745.4869 A3.5,3.5 0 0 1 1480.59,741.9869 L1480.59,517.3969 A3.5,3.5 0 0 1 1484.09,513.8969" fill="none" style="stroke:#696969;stroke-width:1;"/><line style="stroke:#696969;stroke-width:1;" x1="1480.59" x2="1665.5002" y1="536.1937" y2="536.1937"/><text fill="#000000" font-family="sans-serif" font-size="14" font-weight="bold" lengthAdjust="spacing" textLength="171.9102" x="1484.59" y="528.892">Servicio Asignaciones</text><text fill="#A9A9A9" font-family="sans-serif" font-size="10" font-style="italic" lengthAdjust="spacing" textLength="75.1904" x="1670.4948" y="547.476">&#171;Microservice&#187;</text></g><!--cluster MSEsp--><g class="cluster" data-entity="MSEsp" data-source-line="26" data-uid="ent0018" id="cluster_MSEsp"><path d="M394.09,794.4869 L563.4484,794.4869 A5.25,5.25 0 0 1 566.9484,797.9869 L573.9484,816.7837 L827.09,816.7837 A3.5,3.5 0 0 1 830.59,820.2837 L830.59,1094.5769 A3.5,3.5 0 0 1 827.09,1098.0769 L394.09,1098.0769 A3.5,3.5 0 0 1 390.59,1094.5769 L390.59,797.9869 A3.5,3.5 0 0 1 394.09,794.4869" fill="none" style="stroke:#696969;stroke-width:1;"/><line style="stroke:#696969;stroke-width:1;" x1="390.59" x2="573.9484" y1="816.7837" y2="816.7837"/><text fill="#000000" font-family="sans-serif" font-size="14" font-weight="bold" lengthAdjust="spacing" textLength="170.3584" x="394.59" y="809.482">Servicio Especialistas</text><text fill="#A9A9A9" font-family="sans-serif" font-size="10" font-style="italic" lengthAdjust="spacing" textLength="75.1904" x="576.9948" y="828.066">&#171;Microservice&#187;</text></g><!--cluster MSNotif--><g class="cluster" data-entity="MSNotif" data-source-line="31" data-uid="ent0022" id="cluster_MSNotif"><path d="M874.09,794.4869 L1053.0597,794.4869 A5.25,5.25 0 0 1 1056.5597,797.9869 L1063.5597,816.7837 L1324.09,816.7837 A3.5,3.5 0 0 1 1327.59,820.2837 L1327.59,1094.5769 A3.5,3.5 0 0 1 1324.09,1098.0769 L874.09,1098.0769 A3.5,3.5 0 0 1 870.59,1094.5769 L870.59,797.9869 A3.5,3.5 0 0 1 874.09,794.4869" fill="none" style="stroke:#696969;stroke-width:1;"/><line style="stroke:#696969;stroke-width:1;" x1="870.59" x2="1063.5597" y1="816.7837" y2="816.7837"/><text fill="#000000" font-family="sans-serif" font-size="14" font-weight="bold" lengthAdjust="spacing" textLength="179.9697" x="874.59" y="809.482">Servicio Notificaciones</text><text fill="#A9A9A9" font-family="sans-serif" font-size="10" font-style="italic" lengthAdjust="spacing" textLength="75.1904" x="1065.4948" y="828.066">&#171;Microservice&#187;</text></g><!--cluster Punto de Entrada API--><g class="cluster" data-entity="Punto de Entrada API" data-source-line="38" data-uid="ent0026" id="cluster_Punto de Entrada API"><path d="M812.09,310.5969 L980.0812,310.5969 A5.25,5.25 0 0 1 983.5812,314.0969 L990.5812,332.8937 L989.09,332.8937 A3.5,3.5 0 0 1 992.59,336.3937 L992.59,415.3969 A3.5,3.5 0 0 1 989.09,418.8969 L812.09,418.8969 A3.5,3.5 0 0 1 808.59,415.3969 L808.59,314.0969 A3.5,3.5 0 0 1 812.09,310.5969" fill="none" style="stroke:#696969;stroke-width:1;"/><line style="stroke:#696969;stroke-width:1;" x1="808.59" x2="990.5812" y1="332.8937" y2="332.8937"/><text fill="#000000" font-family="sans-serif" font-size="14" font-weight="bold" lengthAdjust="spacing" textLength="168.9912" x="812.59" y="325.592">Punto de Entrada API</text><text fill="#A9A9A9" font-family="sans-serif" font-size="10" font-style="italic" lengthAdjust="spacing" textLength="38.335" x="885.4225" y="344.176">&#171;Node&#187;</text></g><!--cluster DB--><g class="cluster" data-entity="DB" data-source-line="42" data-uid="ent0028" id="cluster_DB"><path d="M1991.59,975.7869 C1991.59,965.7869 2237.59,965.7869 2237.59,965.7869 C2237.59,965.7869 2483.59,965.7869 2483.59,975.7869 L2483.59,1245.3769 C2483.59,1255.3769 2237.59,1255.3769 2237.59,1255.3769 C2237.59,1255.3769 1991.59,1255.3769 1991.59,1245.3769 L1991.59,975.7869" fill="#87CEFA" style="stroke:#4169E1;stroke-width:1;"/><path d="M1991.59,975.7869 C1991.59,985.7869 2237.59,985.7869 2237.59,985.7869 C2237.59,985.7869 2483.59,985.7869 2483.59,975.7869" fill="none" style="stroke:#4169E1;stroke-width:1;"/><text fill="#454645" font-family="sans-serif" font-size="14" font-weight="bold" lengthAdjust="spacing" textLength="155.5449" x="2159.8175" y="1000.782">Base de Datos SIAD</text></g><!--entity UI Supervisores--><g class="entity" data-entity="UI Supervisores" data-source-line="6" data-uid="ent0004" id="entity_UI Supervisores"><rect fill="#FAFAD2" height="46.2969" rx="3.5" ry="3.5" style="stroke:#CD853F;stroke-width:0.5;" width="149.5391" x="226.82" y="159.2969"/><rect fill="#FAFAD2" height="10" style="stroke:#CD853F;stroke-width:0.5;" width="15" x="356.3591" y="164.2969"/><rect fill="#FAFAD2" height="2" style="stroke:#CD853F;stroke-width:0.5;" width="4" x="354.3591" y="166.2969"/><rect fill="#FAFAD2" height="2" style="stroke:#CD853F;stroke-width:0.5;" width="4" x="354.3591" y="170.2969"/><text fill="#000000" font-family="sans-serif" font-size="14" lengthAdjust="spacing" textLength="109.5391" x="241.82" y="192.292">UI Supervisores</text></g><!--entity L?gica Cliente Sup.--><g class="entity" data-entity="L&#243;gica Cliente Sup." data-source-line="7" data-uid="ent0005" id="entity_L&#243;gica Cliente Sup."><rect fill="#FAFAD2" height="46.2969" rx="3.5" ry="3.5" style="stroke:#CD853F;stroke-width:0.5;" width="174.5586" x="411.31" y="159.2969"/><rect fill="#FAFAD2" height="10" style="stroke:#CD853F;stroke-width:0.5;" width="15" x="565.8686" y="164.2969"/><rect fill="#FAFAD2" height="2" style="stroke:#CD853F;stroke-width:0.5;" width="4" x="563.8686" y="166.2969"/><rect fill="#FAFAD2" height="2" style="stroke:#CD853F;stroke-width:0.5;" width="4" x="563.8686" y="170.2969"/><text fill="#000000" font-family="sans-serif" font-size="14" lengthAdjust="spacing" textLength="134.5586" x="426.31" y="192.292">L&#243;gica Cliente Sup.</text></g><!--entity UI Especialistas--><g class="entity" data-entity="UI Especialistas" data-source-line="10" data-uid="ent0007" id="entity_UI Especialistas"><rect fill="#FAFAD2" height="46.2969" rx="3.5" ry="3.5" style="stroke:#CD853F;stroke-width:0.5;" width="149.0674" x="694.05" y="159.2969"/><rect fill="#FAFAD2" height="10" style="stroke:#CD853F;stroke-width:0.5;" width="15" x="823.1174" y="164.2969"/><rect fill="#FAFAD2" height="2" style="stroke:#CD853F;stroke-width:0.5;" width="4" x="821.1174" y="166.2969"/><rect fill="#FAFAD2" height="2" style="stroke:#CD853F;stroke-width:0.5;" width="4" x="821.1174" y="170.2969"/><text fill="#000000" font-family="sans-serif" font-size="14" lengthAdjust="spacing" textLength="109.0674" x="709.05" y="192.292">UI Especialistas</text></g><!--entity L?gica Cliente Esp.--><g class="entity" data-entity="L&#243;gica Cliente Esp." data-source-line="11" data-uid="ent0008" id="entity_L&#243;gica Cliente Esp."><rect fill="#FAFAD2" height="46.2969" rx="3.5" ry="3.5" style="stroke:#CD853F;stroke-width:0.5;" width="172.9385" x="878.12" y="159.2969"/><rect fill="#FAFAD2" height="10" style="stroke:#CD853F;stroke-width:0.5;" width="15" x="1031.0585" y="164.2969"/><rect fill="#FAFAD2" height="2" style="stroke:#CD853F;stroke-width:0.5;" width="4" x="1029.0585" y="166.2969"/><rect fill="#FAFAD2" height="2" style="stroke:#CD853F;stroke-width:0.5;" width="4" x="1029.0585" y="170.2969"/><text fill="#000000" font-family="sans-serif" font-size="14" lengthAdjust="spacing" textLength="132.9385" x="893.12" y="192.292">L&#243;gica Cliente Esp.</text></g><!--entity API Declaraciones--><g class="entity" data-entity="API Declaraciones" data-source-line="17" data-uid="ent0011" id="entity_API Declaraciones"><rect fill="#FAFAD2" height="46.2969" rx="3.5" ry="3.5" style="stroke:#CD853F;stroke-width:0.5;" width="165.4258" x="120.87" y="567.8969"/><rect fill="#FAFAD2" height="10" style="stroke:#CD853F;stroke-width:0.5;" width="15" x="266.2958" y="572.8969"/><rect fill="#FAFAD2" height="2" style="stroke:#CD853F;stroke-width:0.5;" width="4" x="264.2958" y="574.8969"/><rect fill="#FAFAD2" height="2" style="stroke:#CD853F;stroke-width:0.5;" width="4" x="264.2958" y="578.8969"/><text fill="#000000" font-family="sans-serif" font-size="14" lengthAdjust="spacing" textLength="125.4258" x="135.87" y="600.892">API Declaraciones</text></g><!--entity L?gica Negocio Decl.--><g class="entity" data-entity="L&#243;gica Negocio Decl." data-source-line="18" data-uid="ent0012" id="entity_L&#243;gica Negocio Decl."><rect fill="#FAFAD2" height="46.2969" rx="3.5" ry="3.5" style="stroke:#CD853F;stroke-width:0.5;" width="186.4395" x="321.37" y="567.8969"/><rect fill="#FAFAD2" height="10" style="stroke:#CD853F;stroke-width:0.5;" width="15" x="487.8095" y="572.8969"/><rect fill="#FAFAD2" height="2" style="stroke:#CD853F;stroke-width:0.5;" width="4" x="485.8095" y="574.8969"/><rect fill="#FAFAD2" height="2" style="stroke:#CD853F;stroke-width:0.5;" width="4" x="485.8095" y="578.8969"/><text fill="#000000" font-family="sans-serif" font-size="14" lengthAdjust="spacing" textLength="146.4395" x="336.37" y="600.892">L&#243;gica Negocio Decl.</text></g><!--entity Acceso a Datos Decl.--><g class="entity" data-entity="Acceso a Datos Decl." data-source-line="19" data-uid="ent0013" id="entity_Acceso a Datos Decl."><rect fill="#FAFAD2" height="46.2969" rx="3.5" ry="3.5" style="stroke:#CD853F;stroke-width:0.5;" width="187.5127" x="214.83" y="675.1869"/><rect fill="#FAFAD2" height="10" style="stroke:#CD853F;stroke-width:0.5;" width="15" x="382.3427" y="680.1869"/><rect fill="#FAFAD2" height="2" style="stroke:#CD853F;stroke-width:0.5;" width="4" x="380.3427" y="682.1869"/><rect fill="#FAFAD2" height="2" style="stroke:#CD853F;stroke-width:0.5;" width="4" x="380.3427" y="686.1869"/><text fill="#000000" font-family="sans-serif" font-size="14" lengthAdjust="spacing" textLength="147.5127" x="229.83" y="708.182">Acceso a Datos Decl.</text></g><!--entity API Asignaciones--><g class="entity" data-entity="API Asignaciones" data-source-line="22" data-uid="ent0015" id="entity_API Asignaciones"><rect fill="#FAFAD2" height="46.2969" rx="3.5" ry="3.5" style="stroke:#CD853F;stroke-width:0.5;" width="158.6309" x="1524.27" y="567.8969"/><rect fill="#FAFAD2" height="10" style="stroke:#CD853F;stroke-width:0.5;" width="15" x="1662.9009" y="572.8969"/><rect fill="#FAFAD2" height="2" style="stroke:#CD853F;stroke-width:0.5;" width="4" x="1660.9009" y="574.8969"/><rect fill="#FAFAD2" height="2" style="stroke:#CD853F;stroke-width:0.5;" width="4" x="1660.9009" y="578.8969"/><text fill="#000000" font-family="sans-serif" font-size="14" lengthAdjust="spacing" textLength="118.6309" x="1539.27" y="600.892">API Asignaciones</text></g><!--entity L?gica Negocio Asig.--><g class="entity" data-entity="L&#243;gica Negocio Asig." data-source-line="23" data-uid="ent0016" id="entity_L&#243;gica Negocio Asig."><rect fill="#FAFAD2" height="46.2969" rx="3.5" ry="3.5" style="stroke:#CD853F;stroke-width:0.5;" width="185.1064" x="1718.03" y="567.8969"/><rect fill="#FAFAD2" height="10" style="stroke:#CD853F;stroke-width:0.5;" width="15" x="1883.1364" y="572.8969"/><rect fill="#FAFAD2" height="2" style="stroke:#CD853F;stroke-width:0.5;" width="4" x="1881.1364" y="574.8969"/><rect fill="#FAFAD2" height="2" style="stroke:#CD853F;stroke-width:0.5;" width="4" x="1881.1364" y="578.8969"/><text fill="#000000" font-family="sans-serif" font-size="14" lengthAdjust="spacing" textLength="145.1064" x="1733.03" y="600.892">L&#243;gica Negocio Asig.</text></g><!--entity Acceso a Datos Asig.--><g class="entity" data-entity="Acceso a Datos Asig." data-source-line="24" data-uid="ent0017" id="entity_Acceso a Datos Asig."><rect fill="#FAFAD2" height="46.2969" rx="3.5" ry="3.5" style="stroke:#CD853F;stroke-width:0.5;" width="186.1797" x="1535.5" y="675.1869"/><rect fill="#FAFAD2" height="10" style="stroke:#CD853F;stroke-width:0.5;" width="15" x="1701.6797" y="680.1869"/><rect fill="#FAFAD2" height="2" style="stroke:#CD853F;stroke-width:0.5;" width="4" x="1699.6797" y="682.1869"/><rect fill="#FAFAD2" height="2" style="stroke:#CD853F;stroke-width:0.5;" width="4" x="1699.6797" y="686.1869"/><text fill="#000000" font-family="sans-serif" font-size="14" lengthAdjust="spacing" textLength="146.1797" x="1550.5" y="708.182">Acceso a Datos Asig.</text></g><!--entity API Especialistas--><g class="entity" data-entity="API Especialistas" data-source-line="27" data-uid="ent0019" id="entity_API Especialistas"><rect fill="#FAFAD2" height="46.2969" rx="3.5" ry="3.5" style="stroke:#CD853F;stroke-width:0.5;" width="156.8398" x="414.17" y="848.4869"/><rect fill="#FAFAD2" height="10" style="stroke:#CD853F;stroke-width:0.5;" width="15" x="551.0098" y="853.4869"/><rect fill="#FAFAD2" height="2" style="stroke:#CD853F;stroke-width:0.5;" width="4" x="549.0098" y="855.4869"/><rect fill="#FAFAD2" height="2" style="stroke:#CD853F;stroke-width:0.5;" width="4" x="549.0098" y="859.4869"/><text fill="#000000" font-family="sans-serif" font-size="14" lengthAdjust="spacing" textLength="116.8398" x="429.17" y="881.482">API Especialistas</text></g><!--entity L?gica Negocio Esp.--><g class="entity" data-entity="L&#243;gica Negocio Esp." data-source-line="28" data-uid="ent0020" id="entity_L&#243;gica Negocio Esp."><rect fill="#FAFAD2" height="46.2969" rx="3.5" ry="3.5" style="stroke:#CD853F;stroke-width:0.5;" width="180.4854" x="606.34" y="848.4869"/><rect fill="#FAFAD2" height="10" style="stroke:#CD853F;stroke-width:0.5;" width="15" x="766.8254" y="853.4869"/><rect fill="#FAFAD2" height="2" style="stroke:#CD853F;stroke-width:0.5;" width="4" x="764.8254" y="855.4869"/><rect fill="#FAFAD2" height="2" style="stroke:#CD853F;stroke-width:0.5;" width="4" x="764.8254" y="859.4869"/><text fill="#000000" font-family="sans-serif" font-size="14" lengthAdjust="spacing" textLength="140.4854" x="621.34" y="881.482">L&#243;gica Negocio Esp.</text></g><!--entity Acceso a Datos Esp.--><g class="entity" data-entity="Acceso a Datos Esp." data-source-line="29" data-uid="ent0021" id="entity_Acceso a Datos Esp."><rect fill="#FAFAD2" height="46.2969" rx="3.5" ry="3.5" style="stroke:#CD853F;stroke-width:0.5;" width="181.5586" x="414.81" y="1027.7869"/><rect fill="#FAFAD2" height="10" style="stroke:#CD853F;stroke-width:0.5;" width="15" x="576.3686" y="1032.7869"/><rect fill="#FAFAD2" height="2" style="stroke:#CD853F;stroke-width:0.5;" width="4" x="574.3686" y="1034.7869"/><rect fill="#FAFAD2" height="2" style="stroke:#CD853F;stroke-width:0.5;" width="4" x="574.3686" y="1038.7869"/><text fill="#000000" font-family="sans-serif" font-size="14" lengthAdjust="spacing" textLength="141.5586" x="429.81" y="1060.782">Acceso a Datos Esp.</text></g><!--entity API Notificaciones--><g class="entity" data-entity="API Notificaciones" data-source-line="32" data-uid="ent0023" id="entity_API Notificaciones"><rect fill="#FAFAD2" height="46.2969" rx="3.5" ry="3.5" style="stroke:#CD853F;stroke-width:0.5;" width="165.043" x="895.06" y="848.4869"/><rect fill="#FAFAD2" height="10" style="stroke:#CD853F;stroke-width:0.5;" width="15" x="1040.103" y="853.4869"/><rect fill="#FAFAD2" height="2" style="stroke:#CD853F;stroke-width:0.5;" width="4" x="1038.103" y="855.4869"/><rect fill="#FAFAD2" height="2" style="stroke:#CD853F;stroke-width:0.5;" width="4" x="1038.103" y="859.4869"/><text fill="#000000" font-family="sans-serif" font-size="14" lengthAdjust="spacing" textLength="125.043" x="910.06" y="881.482">API Notificaciones</text></g><!--entity L?gica Negocio Notif.--><g class="entity" data-entity="L&#243;gica Negocio Notif." data-source-line="33" data-uid="ent0024" id="entity_L&#243;gica Negocio Notif."><rect fill="#FAFAD2" height="46.2969" rx="3.5" ry="3.5" style="stroke:#CD853F;stroke-width:0.5;" width="188.8047" x="1095.18" y="848.4869"/><rect fill="#FAFAD2" height="10" style="stroke:#CD853F;stroke-width:0.5;" width="15" x="1263.9847" y="853.4869"/><rect fill="#FAFAD2" height="2" style="stroke:#CD853F;stroke-width:0.5;" width="4" x="1261.9847" y="855.4869"/><rect fill="#FAFAD2" height="2" style="stroke:#CD853F;stroke-width:0.5;" width="4" x="1261.9847" y="859.4869"/><text fill="#000000" font-family="sans-serif" font-size="14" lengthAdjust="spacing" textLength="148.8047" x="1110.18" y="881.482">L&#243;gica Negocio Notif.</text></g><!--entity Integraci?n Email/SMS--><g class="entity" data-entity="Integraci&#243;n Email/SMS" data-source-line="34" data-uid="ent0025" id="entity_Integraci&#243;n Email/SMS"><rect fill="#FAFAD2" height="46.2969" rx="3.5" ry="3.5" style="stroke:#CD853F;stroke-width:0.5;" width="197.2129" x="894.98" y="1027.7869"/><rect fill="#FAFAD2" height="10" style="stroke:#CD853F;stroke-width:0.5;" width="15" x="1072.1929" y="1032.7869"/><rect fill="#FAFAD2" height="2" style="stroke:#CD853F;stroke-width:0.5;" width="4" x="1070.1929" y="1034.7869"/><rect fill="#FAFAD2" height="2" style="stroke:#CD853F;stroke-width:0.5;" width="4" x="1070.1929" y="1038.7869"/><text fill="#000000" font-family="sans-serif" font-size="14" lengthAdjust="spacing" textLength="157.2129" x="909.98" y="1060.782">Integraci&#243;n Email/SMS</text></g><!--entity APIGateway--><g class="entity" data-entity="APIGateway" data-source-line="39" data-uid="ent0027" id="entity_APIGateway"><rect fill="#FAFAD2" height="46.2969" rx="3.5" ry="3.5" style="stroke:#CD853F;stroke-width:0.5;" width="128.4434" x="836.36" y="356.5969"/><rect fill="#FAFAD2" height="10" style="stroke:#CD853F;stroke-width:0.5;" width="15" x="944.8034" y="361.5969"/><rect fill="#FAFAD2" height="2" style="stroke:#CD853F;stroke-width:0.5;" width="4" x="942.8034" y="363.5969"/><rect fill="#FAFAD2" height="2" style="stroke:#CD853F;stroke-width:0.5;" width="4" x="942.8034" y="367.5969"/><text fill="#000000" font-family="sans-serif" font-size="14" lengthAdjust="spacing" textLength="88.4434" x="851.36" y="389.592">API Gateway</text></g><!--entity Esquema Declaraciones--><g class="entity" data-entity="Esquema Declaraciones" data-source-line="43" data-uid="ent0029" id="entity_Esquema Declaraciones"><path d="M2019.08,1023.7869 L2058.08,1023.7869 A5.25,5.25 0 0 1 2061.58,1027.2869 L2068.58,1044.7869 L2210.0868,1044.7869 A3.5,3.5 0 0 1 2213.5868,1048.2869 L2213.5868,1074.5837 A3.5,3.5 0 0 1 2210.0868,1078.0837 L2019.08,1078.0837 A3.5,3.5 0 0 1 2015.58,1074.5837 L2015.58,1027.2869 A3.5,3.5 0 0 1 2019.08,1023.7869" fill="#B0C4DE" style="stroke:#4682B4;stroke-width:0.5;"/><line style="stroke:#4682B4;stroke-width:0.5;" x1="2015.58" x2="2068.58" y1="1044.7869" y2="1044.7869"/><text fill="#000000" font-family="sans-serif" font-size="14" lengthAdjust="spacing" textLength="168.0068" x="2025.58" y="1064.782">Esquema Declaraciones</text></g><!--entity Esquema Asignaciones--><g class="entity" data-entity="Esquema Asignaciones" data-source-line="44" data-uid="ent0030" id="entity_Esquema Asignaciones"><path d="M2252.48,1023.7869 L2291.48,1023.7869 A5.25,5.25 0 0 1 2294.98,1027.2869 L2301.98,1044.7869 L2436.6919,1044.7869 A3.5,3.5 0 0 1 2440.1919,1048.2869 L2440.1919,1074.5837 A3.5,3.5 0 0 1 2436.6919,1078.0837 L2252.48,1078.0837 A3.5,3.5 0 0 1 2248.98,1074.5837 L2248.98,1027.2869 A3.5,3.5 0 0 1 2252.48,1023.7869" fill="#B0C4DE" style="stroke:#4682B4;stroke-width:0.5;"/><line style="stroke:#4682B4;stroke-width:0.5;" x1="2248.98" x2="2301.98" y1="1044.7869" y2="1044.7869"/><text fill="#000000" font-family="sans-serif" font-size="14" lengthAdjust="spacing" textLength="161.2119" x="2258.98" y="1064.782">Esquema Asignaciones</text></g><!--entity Esquema Especialistas--><g class="entity" data-entity="Esquema Especialistas" data-source-line="45" data-uid="ent0031" id="entity_Esquema Especialistas"><path d="M2023.38,1177.0769 L2062.38,1177.0769 A5.25,5.25 0 0 1 2065.88,1180.5769 L2072.88,1198.0769 L2205.8009,1198.0769 A3.5,3.5 0 0 1 2209.3009,1201.5769 L2209.3009,1227.8738 A3.5,3.5 0 0 1 2205.8009,1231.3738 L2023.38,1231.3738 A3.5,3.5 0 0 1 2019.88,1227.8738 L2019.88,1180.5769 A3.5,3.5 0 0 1 2023.38,1177.0769" fill="#B0C4DE" style="stroke:#4682B4;stroke-width:0.5;"/><line style="stroke:#4682B4;stroke-width:0.5;" x1="2019.88" x2="2072.88" y1="1198.0769" y2="1198.0769"/><text fill="#000000" font-family="sans-serif" font-size="14" lengthAdjust="spacing" textLength="159.4209" x="2029.88" y="1218.072">Esquema Especialistas</text></g><!--link AppSup to APIGateway--><g class="link" data-entity-1="AppSup" data-entity-2="APIGateway" data-source-line="50" data-uid="lnk32" id="link_AppSup_APIGateway"><path d="M629.6474,201.4126 C629.7022,201.525 629.7574,201.6377 629.8128,201.7509 C630.256,202.6559 630.716,203.585 631.1926,204.5357 C633.0991,208.3389 635.2709,212.49 637.6913,216.8444 C647.3725,234.2619 661.03,254.9319 677.59,269.5969 C723.89,310.6069 782.7307,337.8337 830.4507,355.6937" fill="none" id="AppSup-to-APIGateway" style="stroke:#454645;stroke-width:1;stroke-dasharray:7.0,7.0;"/><polygon fill="#454645" points="836.07,357.7969,829.0431,350.896,831.3872,356.0443,826.2389,358.3884,836.07,357.7969" style="stroke:#454645;stroke-width:1;"/><text fill="#000000" font-family="sans-serif" font-size="13" lengthAdjust="spacing" textLength="47.6772" x="709.59" y="290.6638">usa API</text></g><!--link AppEsp to APIGateway--><g class="link" data-entity-1="AppEsp" data-entity-2="APIGateway" data-source-line="51" data-uid="lnk33" id="link_AppEsp_APIGateway"><path d="M1082.4282,229.9334 C1082.3976,230.0774 1082.3669,230.2215 1082.3358,230.3656 C1082.2738,230.6539 1082.2109,230.9425 1082.1472,231.2314 C1082.0196,231.8091 1081.8886,232.3879 1081.7539,232.9675 C1081.4845,234.1266 1081.2006,235.289 1080.9015,236.4525 C1080.3032,238.7795 1079.6439,241.111 1078.9175,243.4302 C1076.0119,252.7069 1072.0325,261.7869 1066.59,269.5969 C1038.98,309.2169 997.3097,335.5003 960.3297,353.5903" fill="none" id="AppEsp-to-APIGateway" style="stroke:#454645;stroke-width:1;stroke-dasharray:7.0,7.0;"/><polygon fill="#454645" points="954.94,356.2269,964.7822,355.8652,959.4314,354.0298,961.2668,348.6789,954.94,356.2269" style="stroke:#454645;stroke-width:1;"/><text fill="#000000" font-family="sans-serif" font-size="13" lengthAdjust="spacing" textLength="47.6772" x="1060.59" y="290.6638">usa API</text></g><!--link APIGateway to MSDecl--><g class="link" data-entity-1="APIGateway" data-entity-2="MSDecl" data-source-line="54" data-uid="lnk34" id="link_APIGateway_MSDecl"><path d="M862.04,403.3369 C816.605,429.9769 738.75,475.6219 671.395,515.1106 C637.7175,534.855 606.665,553.0603 583.6025,566.5814 C572.0713,573.342 562.5375,578.9314 555.6719,582.9567 C554.8137,583.4599 553.9972,583.9386 553.2236,584.3921 C552.8369,584.6189 557.6368,581.8047 557.2718,582.0187" fill="none" id="APIGateway-to-MSDecl" style="stroke:#454645;stroke-width:1;stroke-dasharray:7.0,7.0;"/><polygon fill="#454645" points="552.0958,585.0534,561.8829,583.952,556.4091,582.5245,557.8366,577.0507,552.0958,585.0534" style="stroke:#454645;stroke-width:1;"/></g><!--link APIGateway to MSAsig--><g class="link" data-entity-1="APIGateway" data-entity-2="MSAsig" data-source-line="55" data-uid="lnk35" id="link_APIGateway_MSAsig"><path d="M964.07,403.3369 C1039.5,430.1869 1169.1775,476.3469 1280.715,516.0494 C1336.4837,535.9006 1387.7175,554.1375 1425.3678,567.5391 C1444.193,574.2398 1459.6223,579.7318 1470.5246,583.6123 C1473.2502,584.5824 1475.6929,585.4518 1477.835,586.2142 C1478.3705,586.4049 1478.8872,586.5888 1479.3849,586.7659 C1479.6337,586.8545 1474.2251,584.9295 1474.4644,585.0146" fill="none" id="APIGateway-to-MSAsig" style="stroke:#454645;stroke-width:1;stroke-dasharray:7.0,7.0;"/><polygon fill="#454645" points="1480.117,587.0265,1472.9793,580.2402,1475.4065,585.3499,1470.2968,587.7771,1480.117,587.0265" style="stroke:#454645;stroke-width:1;"/></g><!--link APIGateway to MSEsp--><g class="link" data-entity-1="APIGateway" data-entity-2="MSEsp" data-source-line="56" data-uid="lnk36" id="link_APIGateway_MSEsp"><path d="M835.89,380.9569 C654.98,382.2369 153.83,390.5969 104.59,443.8969 C8.8,547.5769 6,660.4669 104.59,761.4869 C131.68,789.2469 772.69,753.7769 802.59,778.4869 C806.5638,781.7719 809.8623,785.6436 812.5918,789.9079 C813.2741,790.974 813.9209,792.0646 814.5338,793.1767 C814.687,793.4548 814.8381,793.7341 814.9871,794.0148 C815.0616,794.1551 812.363,811.2717 812.4365,811.4127" fill="none" id="APIGateway-to-MSEsp" style="stroke:#454645;stroke-width:1;stroke-dasharray:7.0,7.0;"/><polygon fill="#454645" points="815.209,816.7336,814.5975,806.9038,812.8986,812.2995,807.5029,810.6005,815.209,816.7336" style="stroke:#454645;stroke-width:1;"/></g><!--link APIGateway to MSNotif--><g class="link" data-entity-1="APIGateway" data-entity-2="MSNotif" data-source-line="57" data-uid="lnk37" id="link_APIGateway_MSNotif"><path d="M965.29,381.5869 C1176.37,384.7769 1836.11,398.3169 1919.59,443.8969 C2016.5,496.8069 2032.21,539.2569 2066.59,644.1869 C2093.375,725.9669 1909.74,782.3369 1717.8687,818.3819 C1621.9331,836.4044 1523.9384,849.3456 1449.1577,857.8413 C1411.7673,862.0891 1380.1804,865.2255 1357.556,867.3299 C1346.2439,868.3821 1337.1724,869.1764 1330.7364,869.7226 C1329.9319,869.7908 1335.1476,869.3535 1334.4262,869.414" fill="none" id="APIGateway-to-MSNotif" style="stroke:#454645;stroke-width:1;stroke-dasharray:7.0,7.0;"/><polygon fill="#454645" points="1328.4472,869.9158,1337.7502,873.1491,1333.4297,869.4976,1337.0812,865.1771,1328.4472,869.9158" style="stroke:#454645;stroke-width:1;"/></g><!--link MSAsig to MSDecl--><g class="link" data-entity-1="MSAsig" data-entity-2="MSDecl" data-source-line="60" data-uid="lnk38" id="link_MSAsig_MSDecl"><path d="M1479.7183,591.0369 C1479.3336,591.0369 1478.937,591.0369 1478.5285,591.0369 C1476.8945,591.0369 1475.0701,591.0369 1473.0621,591.0369 C1465.0299,591.0369 1454.058,591.0369 1440.5664,591.0369 C1413.5831,591.0369 1376.5206,591.0369 1332.7375,591.0369 C1245.1712,591.0369 1130.7225,591.0369 1016.26,591.0369 C901.7975,591.0369 787.3212,591.0369 699.7,591.0369 C655.8894,591.0369 618.7925,591.0369 591.768,591.0369 C578.2557,591.0369 567.2615,591.0369 559.2053,591.0369 C557.1912,591.0369 555.3607,591.0369 553.7205,591.0369 C553.3104,591.0369 552.9122,591.0369 552.526,591.0369 C552.3329,591.0369 558.1428,591.0369 557.9557,591.0369" fill="none" id="MSAsig-to-MSDecl" style="stroke:#454645;stroke-width:1;stroke-dasharray:7.0,7.0;"/><polygon fill="#454645" points="551.9557,591.0369,560.9557,595.0369,556.9557,591.0369,560.9557,587.0369,551.9557,591.0369" style="stroke:#454645;stroke-width:1;"/><text fill="#000000" font-family="sans-serif" font-size="13" lengthAdjust="spacing" textLength="181.8159" x="925.59" y="584.1038">consulta info. declaraciones</text></g><!--link MSAsig to MSEsp--><g class="link" data-entity-1="MSAsig" data-entity-2="MSEsp" data-source-line="61" data-uid="lnk39" id="link_MSAsig_MSEsp"><path d="M1479.9191,592.6211 C1478.8968,592.6914 1477.7892,592.7681 1476.599,592.8512 C1474.2187,593.0175 1471.5078,593.2095 1468.4883,593.4274 C1456.4104,594.2991 1439.3945,595.5847 1418.8389,597.2919 C1377.7278,600.7063 1322.4581,605.8069 1264.2162,612.6544 C1147.7325,626.3494 1019.36,647.0319 968.59,675.1869 C921.92,701.0669 885.8225,748.8194 861.195,790.6431 C848.8813,811.555 839.435,830.9847 832.9684,845.457 C832.1601,847.2661 833.7872,843.4937 833.0722,845.1411" fill="none" id="MSAsig-to-MSEsp" style="stroke:#454645;stroke-width:1;stroke-dasharray:7.0,7.0;"/><polygon fill="#454645" points="830.6834,850.645,837.9359,843.9816,832.6741,846.0584,830.5973,840.7965,830.6834,850.645" style="stroke:#454645;stroke-width:1;"/><text fill="#000000" font-family="sans-serif" font-size="13" lengthAdjust="spacing" textLength="237.123" x="969.59" y="702.9038">consulta disponibilidad especialistas</text></g><!--link MSDecl to MSNotif--><g class="link" data-entity-1="MSDecl" data-entity-2="MSNotif" data-source-line="62" data-uid="lnk40" id="link_MSDecl_MSNotif"><path d="M551.8183,696.8423 C551.9843,697.4211 552.1529,697.9994 552.3244,698.5771 C552.6673,699.7324 553.0212,700.8852 553.3866,702.0348 C554.848,706.6332 556.4917,711.1804 558.3386,715.6308 C565.7263,733.4325 576.365,749.6869 591.59,761.4869 C607.13,773.5369 1284.42,765.9569 1299.59,778.4869 C1303.565,781.7719 1306.8645,785.6436 1309.5946,789.9079 C1310.2772,790.974 1310.9241,792.0646 1311.5371,793.1767 C1311.6904,793.4548 1311.8415,793.7341 1311.9905,794.0148 C1312.0651,794.1551 1309.366,811.2719 1309.4395,811.4129" fill="none" id="MSDecl-to-MSNotif" style="stroke:#454645;stroke-width:1;stroke-dasharray:7.0,7.0;"/><polygon fill="#454645" points="1312.2125,816.7336,1311.6001,806.9038,1309.9017,812.2997,1304.5058,810.6012,1312.2125,816.7336" style="stroke:#454645;stroke-width:1;"/><text fill="#000000" font-family="sans-serif" font-size="13" lengthAdjust="spacing" textLength="278.7192" x="592.59" y="702.9038">solicita notificaci&#243;n (ej. nueva declaraci&#243;n)</text></g><!--link MSAsig to MSNotif--><g class="link" data-entity-1="MSAsig" data-entity-2="MSNotif" data-source-line="63" data-uid="lnk41" id="link_MSAsig_MSNotif"><path d="M1480.2304,591.6431 C1480.0682,591.6377 1479.9038,591.6324 1479.7372,591.6271 C1479.4041,591.6164 1479.0624,591.606 1478.7122,591.5958 C1473.1091,591.4324 1465.3352,591.3257 1455.9491,591.5052 C1437.1769,591.8641 1411.9563,593.3675 1384.7575,597.8506 C1330.36,606.8169 1268.05,627.7019 1233.59,675.1869 C1211.06,706.2269 1210.09,731.1669 1233.59,761.4869 C1252.14,785.4269 1278.58,756.6569 1299.59,778.4869 C1303.165,782.2019 1306.163,786.3978 1308.6718,790.9001 C1309.299,792.0256 1307.2612,810.0765 1307.8287,811.2376" fill="none" id="MSAsig-to-MSNotif" style="stroke:#454645;stroke-width:1;stroke-dasharray:7.0,7.0;"/><polygon fill="#454645" points="1310.463,816.6284,1310.1053,806.786,1308.2677,812.1361,1302.9176,810.2985,1310.463,816.6284" style="stroke:#454645;stroke-width:1;"/><text fill="#000000" font-family="sans-serif" font-size="13" lengthAdjust="spacing" textLength="273.2412" x="1234.59" y="702.9038">solicita notificaci&#243;n (ej. nueva asignaci&#243;n)</text></g><!--link MSDecl to DB--><g class="link" data-entity-1="MSDecl" data-entity-2="DB" data-source-line="66" data-uid="lnk42" id="link_MSDecl_DB"><path d="M551.6631,592.0085 C553.2937,592.0039 555.1637,591.9993 557.266,591.9949 C565.675,591.9774 577.8005,591.9644 593.1906,591.9798 C623.9709,592.0108 667.81,592.1556 721.0938,592.6062 C827.6613,593.5075 972.0075,595.6319 1125.22,600.5144 C1431.645,610.2794 1773.535,631.0769 1919.59,675.1869 C1966.08,689.2369 2253.45,874.5069 2297.59,894.7869 C2355.32,921.3069 2372.45,921.2969 2432.59,941.7869 C2443.23,945.4069 2449.19,941.3169 2456.59,949.7869 C2460.2575,953.9844 2463.31,958.6652 2465.8433,963.6467 C2466.16,964.2694 2463.8903,959.479 2464.191,960.1107" fill="none" id="MSDecl-to-DB" style="stroke:#454645;stroke-width:1;stroke-dasharray:7.0,7.0;"/><polygon fill="#454645" points="2466.7692,965.5286,2466.5138,955.683,2464.6207,961.0137,2459.29,959.1206,2466.7692,965.5286" style="stroke:#454645;stroke-width:1;"/></g><!--link MSAsig to DB--><g class="link" data-entity-1="MSAsig" data-entity-2="DB" data-source-line="67" data-uid="lnk43" id="link_MSAsig_DB"><path d="M1928.19,633.1012 C1930.6111,633.263 1933.003,633.4381 1935.3643,633.6271 C1940.0869,634.0051 1944.6868,634.4389 1949.1529,634.9342 C1967.0172,636.9153 1982.7388,639.8794 1995.59,644.1869 C2228.66,722.3169 2320.55,745.0369 2456.59,949.7869 C2459.675,954.4294 2462.2884,959.4456 2464.4996,964.6734 C2464.6378,965.0001 2462.4918,959.7788 2462.6269,960.1072" fill="none" id="MSAsig-to-DB" style="stroke:#454645;stroke-width:1;stroke-dasharray:7.0,7.0;"/><polygon fill="#454645" points="2464.9096,965.656,2465.1848,955.811,2463.0073,961.032,2457.7863,958.8546,2464.9096,965.656" style="stroke:#454645;stroke-width:1;"/></g><!--link MSEsp to DB--><g class="link" data-entity-1="MSEsp" data-entity-2="DB" data-source-line="68" data-uid="lnk44" id="link_MSEsp_DB"><path d="M830.6094,876.7251 C830.8462,876.8411 831.0873,876.9588 831.3326,877.0782 C832.3142,877.5559 833.364,878.0605 834.4748,878.5863 C836.6963,879.6378 839.1613,880.7738 841.81,881.9469 C852.405,886.6394 865.94,891.9269 878.59,894.7869 C1180.14,962.8869 1263.66,929.9369 1572.59,941.7869 C1584.86,942.2569 2447.17,941.9069 2456.59,949.7869 C2460.8675,953.3619 2464.38,957.5733 2467.251,962.2104 C2467.9687,963.3696 2465.8414,959.2516 2466.4808,960.4607" fill="none" id="MSEsp-to-DB" style="stroke:#454645;stroke-width:1;stroke-dasharray:7.0,7.0;"/><polygon fill="#454645" points="2469.2859,965.7647,2468.6143,955.9387,2466.9484,961.3447,2461.5424,959.6788,2469.2859,965.7647" style="stroke:#454645;stroke-width:1;"/></g><!--link MSNotif to DB--><g class="link" data-entity-1="MSNotif" data-entity-2="DB" data-source-line="69" data-uid="lnk45" id="link_MSNotif_DB"><path d="M1327.8203,874.616 C1328.1769,874.7007 1328.5445,874.7878 1328.923,874.8775 C1329.6799,875.0568 1330.4803,875.2459 1331.3233,875.4446 C1338.0672,877.0345 1347.5357,879.2361 1359.2539,881.8834 C1382.6903,887.1781 1415.1256,894.2556 1452.7612,901.7869 C1528.0325,916.8494 1624.105,933.7269 1710.59,941.7869 C1720.9,942.7469 2448.64,943.1269 2456.59,949.7869 C2460.8638,953.3644 2464.3734,957.5777 2467.2424,962.2161 C2467.9596,963.3757 2465.8337,959.2569 2466.4728,960.4664" fill="none" id="MSNotif-to-DB" style="stroke:#454645;stroke-width:1;stroke-dasharray:7.0,7.0;"/><polygon fill="#454645" points="2469.2759,965.7713,2468.6079,955.9452,2466.94,961.3505,2461.5346,959.6826,2469.2759,965.7713" style="stroke:#454645;stroke-width:1;"/><text fill="#000000" font-family="sans-serif" font-size="13" lengthAdjust="spacing" textLength="231.1245" x="1711.59" y="937.8538">(si persiste datos de notificaciones)</text></g><!--SRC=[bLR1Jjj04BtxAwRfWKHgq_RO2Y4v9A18WA9QFLHL3uizc8NDhhkx1gKLNyMjLtwiCxOJszYEqY2XxFhDspUpCyzvusznZV0WhwtGFl3IAuIv5AaLQm49mahyoj6ZW_SGIUUnt0sTJBM8vSkpvkN2PHXBeGWW78oZPJYV144cudkH8epEhD4UTGBZC5CofZYZYJ7KQQw4dOpW-FYCpiEJ4_WJ07rsaM6MGPHdQ1-aCnOTGscFIJoHK02THnk4gKBv4vjrHYTe3p- -BLlnF_im5o_FAH72gPAqHWwObi2dhffMgaDo23GefqLma1wAsEbvQfHrHb-AgbxAs1h7IL9b7KIPbJg5cJ6-gEsfCddIhMrK1S0SOxg6wbOueC67PKwN4OFwSmfNopR5tgIkC3NRGwUzo32EqHaGC1UUica0dmOIs7RZFlsC6TRVP3X8FWSS9By179BVQQa-_OCjnV8Fxwcj_hgdzijlzbw_-YlZvSrkg8Va5wZX1Dea1sLGXFJdiAIfIMrbJukraEf3T1drZT0grzuK3gQz5Oa04iCfN9bawqOrxuYLdWkFZs8pAYPzjQoMJ9e8Bww5AmQJ_XDfMK9smm8-dnM4DqObQ66qSEIiPAVjyUi1jDgxvtcxVmXmr86ylgInaq2kwDZH8M6P4qxXYCHaP2ceYSzH2WgstXrKBZkTdZJoXYymobrPjg0olZs8lWCQHQMkKrImjfq53IwcBgsekyjLwkwIeEvcKOsE6BfYYwyEX_7Y3jSPgNe7uYwd0bjmcBxyrQ2H1aKc8fa4bRlKwZZfs6YNAoz0wXipfLHRjzmAuQer8nBfgENajLJC3zY-t-g8HYeSx0ozXIG5wzrLS_UFyMuAEiS7KIkW_Sah1Vz18-fN_wJlHdkkaEzLG6igcbdCPqqnnMhRHyMY55SkIMEtTvbLjpgSVdsGiWKXBDA3Z30PvGvhiJ4Mk0v5PUbNGIuKZ4t6OK9D0dSlDIFNEwShFIigcJOPdj4yd1f5D6_3p_pNypoIln4-VQIHglbg7oaP-UsTMfFhf6IxaEcjF-UvrLzDyXsLCeybq5YQvHAqGfktM7UciuSqkj_CL8uTigzc8rJnfCbOMSS-Fe-eUXdh9q__0000]--></g></svg>